<svg width="24" height="13" viewBox="0 0 24 13" fill="none" xmlns="http://www.w3.org/2000/svg">
<path d="M5.17957 12.2115L0.227539 1.03555H0.873004L5.16899 10.7035L5.47585 11.3955L5.77212 10.7242L10.0787 1.03555H10.7241L5.76154 12.2115H5.17957ZM18.9775 12.4181C18.1945 12.4181 17.4821 12.2667 16.8401 11.9636C16.2052 11.6538 15.6621 11.2406 15.2106 10.7242C14.7521 10.2077 14.3959 9.61555 14.1419 8.94761C13.8879 8.27968 13.7575 7.58414 13.7504 6.8611V6.40661C13.7575 5.71118 13.8774 5.02939 14.1101 4.36146C14.343 3.69353 14.6744 3.09794 15.1048 2.57459C15.5351 2.05125 16.0571 1.63113 16.6708 1.31446C17.2845 0.990806 17.9794 0.828979 18.7553 0.828979C19.4466 0.828979 20.0709 0.956326 20.6282 1.21112C21.1855 1.46592 21.6616 1.8102 22.0567 2.24407C22.4447 2.6847 22.7445 3.1943 22.9561 3.77275C23.1677 4.3512 23.2771 4.96054 23.2841 5.60097V6.25166H14.3218V6.8611C14.3288 7.50154 14.4453 8.12473 14.671 8.73068C14.8967 9.32976 15.2141 9.85998 15.6233 10.3213C16.0254 10.7896 16.5086 11.1649 17.0729 11.4472C17.6443 11.7227 18.2792 11.8638 18.9775 11.8707C19.6901 11.8775 20.3426 11.7571 20.935 11.5091C21.5347 11.2613 22.0637 10.8688 22.5223 10.3317L22.9349 10.6105C22.4482 11.2303 21.8627 11.6882 21.1785 11.9844C20.5013 12.2735 19.7676 12.4181 18.9775 12.4181ZM18.7553 1.3867C18.1205 1.3867 17.549 1.50728 17.0412 1.74822C16.5332 1.98239 16.0959 2.29917 15.7291 2.69856C15.3552 3.09794 15.0519 3.55931 14.8191 4.08265C14.5934 4.59902 14.4453 5.13611 14.3747 5.69394H22.7128V5.55961C22.7128 5.00877 22.6139 4.48204 22.4164 3.97932C22.2259 3.47659 21.958 3.03247 21.6122 2.64683C21.2666 2.2612 20.8504 1.95479 20.3637 1.72759C19.877 1.5003 19.3408 1.3867 18.7553 1.3867Z" fill="#353A40"/>
</svg>
