<svg width="50" height="21" viewBox="0 0 50 21" fill="none" xmlns="http://www.w3.org/2000/svg">
<path d="M1.41066 5.03555L1.43179 6.50225C1.65045 6.02026 1.97496 5.62426 2.40523 5.31446C2.84264 5.00455 3.42103 4.84273 4.14059 4.82898C4.52156 4.82898 4.84954 4.87721 5.12465 4.97356C5.4068 5.06305 5.64669 5.18701 5.84421 5.34545C6.04163 5.50379 6.20037 5.68973 6.32031 5.90317C6.44026 6.10974 6.53193 6.32667 6.59542 6.55386C6.70832 6.32667 6.85287 6.10974 7.02926 5.90317C7.20566 5.6966 7.41727 5.51415 7.6641 5.35571C7.90399 5.19737 8.17552 5.06992 8.47891 4.97356C8.78218 4.87721 9.11732 4.82898 9.48409 4.82898C10.0555 4.82898 10.5176 4.9357 10.8702 5.14914C11.2301 5.35571 11.491 5.62087 11.6533 5.94453C11.8367 6.25432 11.9566 6.58834 12.013 6.94637C12.0695 7.30451 12.0977 7.63842 12.0977 7.94832L12.0765 16.2115H11.5581L11.5369 7.94832C11.5369 7.70728 11.5157 7.43534 11.4734 7.13232C11.4381 6.82939 11.3499 6.5436 11.2088 6.27506C11.0678 6.01338 10.8597 5.79645 10.5846 5.62426C10.3094 5.4453 9.93559 5.36258 9.46296 5.37644C8.99737 5.39019 8.6059 5.46592 8.28842 5.60363C7.9781 5.74134 7.72055 5.91692 7.51598 6.13047C7.31141 6.34391 7.14921 6.57798 7.02926 6.83278C6.91636 7.08757 6.82112 7.3355 6.74354 7.57644C6.74354 7.61092 6.74354 7.64191 6.74354 7.66941C6.75058 7.69014 6.75416 7.71415 6.75416 7.74176L6.73303 16.2115H6.21456L6.19333 7.74176C6.18628 7.50071 6.16158 7.24253 6.11932 6.9671C6.07695 6.6847 5.98529 6.42303 5.84421 6.18208C5.69599 5.94791 5.48438 5.75509 5.20927 5.60363C4.94121 5.4453 4.5779 5.36946 4.11946 5.37644C3.6256 5.39019 3.22003 5.47967 2.90256 5.64499C2.59224 5.8102 2.33826 6.02026 2.14074 6.27506C1.94321 6.53673 1.79152 6.8259 1.68577 7.14268C1.58695 7.45946 1.50233 7.76926 1.43179 8.07229L1.41066 16.2115H0.89209V5.03555H1.41066ZM15.526 20.7254C15.3709 20.7254 15.2121 20.715 15.0498 20.6944C14.8947 20.6737 14.7359 20.6461 14.5737 20.6118L14.5526 20.0849C14.6937 20.1055 14.8382 20.1263 14.9864 20.1469C15.1345 20.1675 15.2827 20.1779 15.4308 20.1779C15.8117 20.1779 16.1574 20.1228 16.4677 20.0127C16.7781 19.9093 17.0568 19.7579 17.3036 19.5582C17.5506 19.3654 17.7692 19.1312 17.9597 18.8558C18.1502 18.5872 18.3194 18.2911 18.4676 17.9675L19.2612 16.1909L13.8859 5.03555H14.5526L19.2718 14.7965L19.5892 15.4472L19.875 14.8068L24.3825 5.03555H25.0703L19.0496 18.0708C18.8732 18.4564 18.6757 18.8075 18.4571 19.1243C18.2454 19.448 18.0021 19.7269 17.727 19.961C17.4447 20.202 17.1238 20.388 16.7641 20.5188C16.4042 20.6565 15.9916 20.7254 15.526 20.7254ZM28.2553 16.2115V5.03555H28.8373V7.72113C29.0206 7.30789 29.2499 6.92575 29.525 6.57459C29.8072 6.21646 30.1317 5.91005 30.4986 5.65525C30.8583 5.40045 31.2568 5.20076 31.6942 5.05617C32.1315 4.90471 32.6007 4.82898 33.1015 4.82898C33.7576 4.82898 34.3219 4.93221 34.7945 5.13878C35.2742 5.34545 35.6692 5.63113 35.9797 5.99614C36.29 6.36803 36.5192 6.80866 36.6674 7.31826C36.8226 7.82785 36.9002 8.38219 36.9002 8.98127L36.9107 16.2115H36.3288V8.98127C36.3217 8.45792 36.2548 7.97582 36.1278 7.53519C36.0078 7.08757 35.8173 6.70194 35.5563 6.37829C35.2953 6.06151 34.9603 5.81369 34.5511 5.63462C34.142 5.45556 33.6482 5.36946 33.0697 5.37644C32.5548 5.38331 32.0646 5.48316 31.599 5.67598C31.1334 5.8688 30.7136 6.12698 30.3398 6.45063C29.9659 6.77429 29.6485 7.15294 29.3875 7.58681C29.1265 8.02067 28.9431 8.47855 28.8373 8.96054V16.2115H28.2553ZM40.8893 10.5099C40.8893 9.86952 40.9669 9.21882 41.1222 8.55777C41.2844 7.89671 41.5241 7.30451 41.8416 6.78116C42.1943 6.20271 42.6599 5.73447 43.2384 5.37644C43.8238 5.01143 44.5504 4.82898 45.4181 4.82898C46.1658 4.82898 46.8678 5.0218 47.5238 5.40743C48.1868 5.79296 48.7089 6.30943 49.0898 6.95674V0.346161H49.6612V16.2115H49.0898V14.5383C48.6877 15.1511 48.141 15.6193 47.4497 15.943C46.7655 16.2598 46.0812 16.4181 45.397 16.4181C44.5715 16.4181 43.8697 16.2425 43.2913 15.8914C42.7199 15.5332 42.2543 15.0788 41.8945 14.5279C41.5488 13.9839 41.295 13.378 41.1327 12.7101C40.9705 12.0351 40.8893 11.3741 40.8893 10.7269V10.5099ZM41.4819 10.7269C41.4819 11.2915 41.5454 11.8733 41.6724 12.4724C41.8064 13.0646 42.0144 13.6121 42.2966 14.1148C42.607 14.6174 43.0091 15.034 43.5029 15.3645C43.9966 15.6951 44.6245 15.8604 45.3864 15.8604C46.1341 15.8604 46.8642 15.6607 47.5767 15.2613C48.2891 14.8619 48.7935 14.3007 49.0898 13.5777V8.05166C48.8218 7.24591 48.3456 6.60209 47.6613 6.1201C46.9841 5.63113 46.2328 5.3867 45.4075 5.3867C44.6386 5.3867 44.0038 5.55202 43.5029 5.88255C43.0021 6.2062 42.6 6.62621 42.2966 7.14268C42.0074 7.63842 41.7994 8.18588 41.6724 8.78496C41.5454 9.37716 41.4819 9.95212 41.4819 10.5099V10.7269Z" fill="#353A40"/>
</svg>
