<svg width="886" height="312" viewBox="0 0 886 312" fill="none" xmlns="http://www.w3.org/2000/svg">
<path d="M382.184 104.336L382.379 118.203C384.397 113.646 387.392 109.902 391.363 106.973C395.4 104.043 400.738 102.513 407.379 102.383C410.895 102.383 413.922 102.839 416.461 103.75C419.065 104.596 421.279 105.768 423.102 107.266C424.924 108.763 426.389 110.521 427.496 112.539C428.603 114.492 429.449 116.543 430.035 118.691C431.077 116.543 432.411 114.492 434.039 112.539C435.667 110.586 437.62 108.861 439.898 107.363C442.112 105.866 444.618 104.661 447.418 103.75C450.217 102.839 453.31 102.383 456.695 102.383C461.969 102.383 466.233 103.392 469.488 105.41C472.809 107.363 475.217 109.87 476.715 112.93C478.408 115.859 479.514 119.017 480.035 122.402C480.556 125.788 480.816 128.945 480.816 131.875L480.621 210H475.836L475.641 131.875C475.641 129.596 475.445 127.025 475.055 124.16C474.729 121.296 473.915 118.594 472.613 116.055C471.311 113.581 469.391 111.53 466.852 109.902C464.312 108.21 460.862 107.428 456.5 107.559C452.203 107.689 448.59 108.405 445.66 109.707C442.796 111.009 440.419 112.669 438.531 114.688C436.643 116.706 435.146 118.919 434.039 121.328C432.997 123.737 432.118 126.081 431.402 128.359C431.402 128.685 431.402 128.978 431.402 129.238C431.467 129.434 431.5 129.661 431.5 129.922L431.305 210H426.52L426.324 129.922C426.259 127.643 426.031 125.202 425.641 122.598C425.25 119.928 424.404 117.454 423.102 115.176C421.734 112.962 419.781 111.139 417.242 109.707C414.768 108.21 411.415 107.493 407.184 107.559C402.626 107.689 398.883 108.535 395.953 110.098C393.089 111.66 390.745 113.646 388.922 116.055C387.099 118.529 385.699 121.263 384.723 124.258C383.811 127.253 383.03 130.182 382.379 133.047L382.184 210H377.398V104.336H382.184ZM512.457 252.676C511.025 252.676 509.56 252.578 508.062 252.383C506.63 252.188 505.165 251.927 503.668 251.602L503.473 246.621C504.775 246.816 506.109 247.012 507.477 247.207C508.844 247.402 510.211 247.5 511.578 247.5C515.094 247.5 518.284 246.979 521.148 245.938C524.013 244.961 526.585 243.529 528.863 241.641C531.142 239.818 533.16 237.604 534.918 235C536.676 232.461 538.238 229.661 539.605 226.602L546.93 209.805L497.32 104.336H503.473L547.027 196.621L549.957 202.773L552.594 196.719L594.195 104.336H600.543L544.977 227.578C543.349 231.224 541.526 234.544 539.508 237.539C537.555 240.599 535.309 243.236 532.77 245.449C530.165 247.728 527.203 249.486 523.883 250.723C520.562 252.025 516.754 252.676 512.457 252.676ZM629.938 210V104.336H635.309V129.727C637.001 125.82 639.117 122.207 641.656 118.887C644.26 115.501 647.255 112.604 650.641 110.195C653.961 107.786 657.639 105.898 661.676 104.531C665.712 103.099 670.042 102.383 674.664 102.383C680.719 102.383 685.927 103.359 690.289 105.312C694.716 107.266 698.362 109.967 701.227 113.418C704.091 116.934 706.207 121.1 707.574 125.918C709.007 130.736 709.723 135.977 709.723 141.641L709.82 210H704.449V141.641C704.384 136.693 703.766 132.135 702.594 127.969C701.487 123.737 699.729 120.091 697.32 117.031C694.911 114.036 691.819 111.693 688.043 110C684.267 108.307 679.71 107.493 674.371 107.559C669.618 107.624 665.094 108.568 660.797 110.391C656.5 112.214 652.626 114.655 649.176 117.715C645.725 120.775 642.796 124.355 640.387 128.457C637.978 132.559 636.285 136.888 635.309 141.445V210H629.938ZM746.539 156.094C746.539 150.039 747.255 143.887 748.688 137.637C750.185 131.387 752.398 125.788 755.328 120.84C758.583 115.371 762.88 110.944 768.219 107.559C773.622 104.108 780.328 102.383 788.336 102.383C795.237 102.383 801.715 104.206 807.77 107.852C813.889 111.497 818.707 116.38 822.223 122.5V60H827.496V210H822.223V194.18C818.512 199.974 813.466 204.401 807.086 207.461C800.771 210.456 794.456 211.953 788.141 211.953C780.523 211.953 774.046 210.293 768.707 206.973C763.434 203.587 759.137 199.29 755.816 194.082C752.626 188.939 750.283 183.21 748.785 176.895C747.288 170.514 746.539 164.264 746.539 158.145V156.094ZM752.008 158.145C752.008 163.483 752.594 168.984 753.766 174.648C755.003 180.247 756.923 185.423 759.527 190.176C762.392 194.928 766.103 198.867 770.66 201.992C775.217 205.117 781.012 206.68 788.043 206.68C794.944 206.68 801.682 204.792 808.258 201.016C814.833 197.24 819.488 191.934 822.223 185.098V132.852C819.749 125.234 815.354 119.147 809.039 114.59C802.789 109.967 795.855 107.656 788.238 107.656C781.142 107.656 775.283 109.219 770.66 112.344C766.038 115.404 762.327 119.375 759.527 124.258C756.858 128.945 754.938 134.121 753.766 139.785C752.594 145.384 752.008 150.82 752.008 156.094V158.145Z" fill="#353A40"/>
<path d="M57.0312 210L11.3281 104.336H17.2852L56.9336 195.742L59.7656 202.285L62.5 195.938L102.246 104.336H108.203L62.4023 210H57.0312ZM184.375 211.953C177.148 211.953 170.573 210.521 164.648 207.656C158.789 204.727 153.776 200.82 149.609 195.938C145.378 191.055 142.09 185.456 139.746 179.141C137.402 172.826 136.198 166.25 136.133 159.414V155.117C136.198 148.542 137.305 142.096 139.453 135.781C141.602 129.466 144.661 123.835 148.633 118.887C152.604 113.939 157.422 109.967 163.086 106.973C168.75 103.913 175.163 102.383 182.324 102.383C188.704 102.383 194.466 103.587 199.609 105.996C204.753 108.405 209.147 111.66 212.793 115.762C216.374 119.928 219.141 124.746 221.094 130.215C223.047 135.684 224.056 141.445 224.121 147.5V153.652H141.406V159.414C141.471 165.469 142.546 171.361 144.629 177.09C146.712 182.754 149.642 187.767 153.418 192.129C157.129 196.556 161.589 200.104 166.797 202.773C172.07 205.378 177.93 206.712 184.375 206.777C190.951 206.842 196.973 205.703 202.441 203.359C207.975 201.016 212.858 197.305 217.09 192.227L220.898 194.863C216.406 200.723 211.003 205.052 204.688 207.852C198.438 210.586 191.667 211.953 184.375 211.953ZM182.324 107.656C176.465 107.656 171.191 108.796 166.504 111.074C161.816 113.288 157.78 116.283 154.395 120.059C150.944 123.835 148.145 128.197 145.996 133.145C143.913 138.027 142.546 143.105 141.895 148.379H218.848V147.109C218.848 141.901 217.936 136.921 216.113 132.168C214.355 127.415 211.882 123.216 208.691 119.57C205.501 115.924 201.66 113.027 197.168 110.879C192.676 108.73 187.728 107.656 182.324 107.656Z" fill="#353A40"/>
<path d="M299 11L403 234L299 300.5L252 234L299 11Z" fill="#5D47E9"/>
<path d="M299 11L215 234L299 300.5L195 234L299 11Z" fill="#C6BDFF"/>
</svg>
