<svg width="586" height="195" viewBox="0 0 586 195" fill="none" xmlns="http://www.w3.org/2000/svg">
<path d="M24.0234 41.8828C24.0234 43.9141 23.5156 45.6484 22.5 47.0859C21.5 48.5078 20.0938 49.5938 18.2812 50.3438C16.4688 51.0938 14.3359 51.4688 11.8828 51.4688C10.5859 51.4688 9.35938 51.4062 8.20312 51.2812C7.04688 51.1562 5.98438 50.9766 5.01562 50.7422C4.04688 50.5078 3.19531 50.2188 2.46094 49.875V46.0547C3.63281 46.5391 5.0625 46.9922 6.75 47.4141C8.4375 47.8203 10.2031 48.0234 12.0469 48.0234C13.7656 48.0234 15.2188 47.7969 16.4062 47.3438C17.5938 46.875 18.4922 46.2109 19.1016 45.3516C19.7266 44.4766 20.0391 43.4297 20.0391 42.2109C20.0391 41.0391 19.7812 40.0625 19.2656 39.2812C18.75 38.4844 17.8906 37.7656 16.6875 37.125C15.5 36.4688 13.875 35.7734 11.8125 35.0391C10.3594 34.5234 9.07812 33.9609 7.96875 33.3516C6.85938 32.7266 5.92969 32.0234 5.17969 31.2422C4.42969 30.4609 3.85938 29.5547 3.46875 28.5234C3.09375 27.4922 2.90625 26.3125 2.90625 24.9844C2.90625 23.1562 3.36719 21.5938 4.28906 20.2969C5.22656 18.9844 6.51562 17.9844 8.15625 17.2969C9.8125 16.5938 11.7109 16.2422 13.8516 16.2422C15.6797 16.2422 17.3672 16.4141 18.9141 16.7578C20.4766 17.1016 21.9062 17.5625 23.2031 18.1406L21.9609 21.5625C20.7266 21.0469 19.4141 20.6172 18.0234 20.2734C16.6484 19.9297 15.2266 19.7578 13.7578 19.7578C12.2891 19.7578 11.0469 19.9766 10.0312 20.4141C9.03125 20.8359 8.26562 21.4375 7.73438 22.2188C7.20312 23 6.9375 23.9297 6.9375 25.0078C6.9375 26.2109 7.1875 27.2109 7.6875 28.0078C8.20312 28.8047 9.01562 29.5156 10.125 30.1406C11.25 30.75 12.7344 31.3906 14.5781 32.0625C16.5938 32.7969 18.3047 33.5781 19.7109 34.4062C21.1172 35.2188 22.1875 36.2188 22.9219 37.4062C23.6562 38.5781 24.0234 40.0703 24.0234 41.8828ZM40.3359 24.8438C42.5234 24.8438 44.3984 25.3281 45.9609 26.2969C47.5234 27.2656 48.7188 28.625 49.5469 30.375C50.375 32.1094 50.7891 34.1406 50.7891 36.4688V38.8828H33.0469C33.0938 41.8984 33.8438 44.1953 35.2969 45.7734C36.75 47.3516 38.7969 48.1406 41.4375 48.1406C43.0625 48.1406 44.5 47.9922 45.75 47.6953C47 47.3984 48.2969 46.9609 49.6406 46.3828V49.8047C48.3438 50.3828 47.0547 50.8047 45.7734 51.0703C44.5078 51.3359 43.0078 51.4688 41.2734 51.4688C38.8047 51.4688 36.6484 50.9688 34.8047 49.9688C32.9766 48.9531 31.5547 47.4688 30.5391 45.5156C29.5234 43.5625 29.0156 41.1719 29.0156 38.3438C29.0156 35.5781 29.4766 33.1875 30.3984 31.1719C31.3359 29.1406 32.6484 27.5781 34.3359 26.4844C36.0391 25.3906 38.0391 24.8438 40.3359 24.8438ZM40.2891 28.0312C38.2109 28.0312 36.5547 28.7109 35.3203 30.0703C34.0859 31.4297 33.3516 33.3281 33.1172 35.7656H46.7109C46.6953 34.2344 46.4531 32.8906 45.9844 31.7344C45.5312 30.5625 44.8359 29.6562 43.8984 29.0156C42.9609 28.3594 41.7578 28.0312 40.2891 28.0312ZM75.5156 51L65.7656 25.3125H69.9375L75.5859 40.8516C75.9766 41.9141 76.375 43.0859 76.7812 44.3672C77.1875 45.6484 77.4688 46.6797 77.625 47.4609H77.7891C77.9766 46.6797 78.2891 45.6484 78.7266 44.3672C79.1641 43.0703 79.5625 41.8984 79.9219 40.8516L85.5703 25.3125H89.7422L79.9688 51H75.5156ZM116.016 38.1094C116.016 40.2188 115.742 42.1016 115.195 43.7578C114.648 45.4141 113.859 46.8125 112.828 47.9531C111.797 49.0938 110.547 49.9688 109.078 50.5781C107.625 51.1719 105.977 51.4688 104.133 51.4688C102.414 51.4688 100.836 51.1719 99.3984 50.5781C97.9766 49.9688 96.7422 49.0938 95.6953 47.9531C94.6641 46.8125 93.8594 45.4141 93.2812 43.7578C92.7188 42.1016 92.4375 40.2188 92.4375 38.1094C92.4375 35.2969 92.9141 32.9062 93.8672 30.9375C94.8203 28.9531 96.1797 27.4453 97.9453 26.4141C99.7266 25.3672 101.844 24.8438 104.297 24.8438C106.641 24.8438 108.688 25.3672 110.438 26.4141C112.203 27.4609 113.57 28.9766 114.539 30.9609C115.523 32.9297 116.016 35.3125 116.016 38.1094ZM96.4688 38.1094C96.4688 40.1719 96.7422 41.9609 97.2891 43.4766C97.8359 44.9922 98.6797 46.1641 99.8203 46.9922C100.961 47.8203 102.43 48.2344 104.227 48.2344C106.008 48.2344 107.469 47.8203 108.609 46.9922C109.766 46.1641 110.617 44.9922 111.164 43.4766C111.711 41.9609 111.984 40.1719 111.984 38.1094C111.984 36.0625 111.711 34.2969 111.164 32.8125C110.617 31.3125 109.773 30.1562 108.633 29.3438C107.492 28.5312 106.016 28.125 104.203 28.125C101.531 28.125 99.5703 29.0078 98.3203 30.7734C97.0859 32.5391 96.4688 34.9844 96.4688 38.1094ZM133.031 51.4688C130.719 51.4688 128.68 50.9922 126.914 50.0391C125.148 49.0859 123.773 47.6328 122.789 45.6797C121.805 43.7266 121.312 41.2656 121.312 38.2969C121.312 35.1875 121.828 32.6484 122.859 30.6797C123.906 28.6953 125.344 27.2266 127.172 26.2734C129 25.3203 131.078 24.8438 133.406 24.8438C134.688 24.8438 135.922 24.9766 137.109 25.2422C138.312 25.4922 139.297 25.8125 140.062 26.2031L138.891 29.4609C138.109 29.1484 137.203 28.8672 136.172 28.6172C135.156 28.3672 134.203 28.2422 133.312 28.2422C131.531 28.2422 130.047 28.625 128.859 29.3906C127.688 30.1562 126.805 31.2812 126.211 32.7656C125.633 34.25 125.344 36.0781 125.344 38.25C125.344 40.3281 125.625 42.1016 126.188 43.5703C126.766 45.0391 127.617 46.1641 128.742 46.9453C129.883 47.7109 131.305 48.0938 133.008 48.0938C134.367 48.0938 135.594 47.9531 136.688 47.6719C137.781 47.375 138.773 47.0312 139.664 46.6406V50.1094C138.805 50.5469 137.844 50.8828 136.781 51.1172C135.734 51.3516 134.484 51.4688 133.031 51.4688ZM155.648 24.8438C157.836 24.8438 159.711 25.3281 161.273 26.2969C162.836 27.2656 164.031 28.625 164.859 30.375C165.688 32.1094 166.102 34.1406 166.102 36.4688V38.8828H148.359C148.406 41.8984 149.156 44.1953 150.609 45.7734C152.062 47.3516 154.109 48.1406 156.75 48.1406C158.375 48.1406 159.812 47.9922 161.062 47.6953C162.312 47.3984 163.609 46.9609 164.953 46.3828V49.8047C163.656 50.3828 162.367 50.8047 161.086 51.0703C159.82 51.3359 158.32 51.4688 156.586 51.4688C154.117 51.4688 151.961 50.9688 150.117 49.9688C148.289 48.9531 146.867 47.4688 145.852 45.5156C144.836 43.5625 144.328 41.1719 144.328 38.3438C144.328 35.5781 144.789 33.1875 145.711 31.1719C146.648 29.1406 147.961 27.5781 149.648 26.4844C151.352 25.3906 153.352 24.8438 155.648 24.8438ZM155.602 28.0312C153.523 28.0312 151.867 28.7109 150.633 30.0703C149.398 31.4297 148.664 33.3281 148.43 35.7656H162.023C162.008 34.2344 161.766 32.8906 161.297 31.7344C160.844 30.5625 160.148 29.6562 159.211 29.0156C158.273 28.3594 157.07 28.0312 155.602 28.0312ZM157.336 14.25C157.727 14.9531 158.273 15.75 158.977 16.6406C159.68 17.5156 160.422 18.375 161.203 19.2188C161.984 20.0625 162.68 20.7891 163.289 21.3984V21.9141H160.523C159.68 21.3672 158.812 20.6953 157.922 19.8984C157.031 19.1016 156.164 18.2734 155.32 17.4141C154.477 18.2734 153.617 19.1016 152.742 19.8984C151.883 20.6797 151.031 21.3516 150.188 21.9141H147.516V21.3984C148.109 20.7734 148.781 20.0391 149.531 19.1953C150.297 18.3516 151.023 17.4922 151.711 16.6172C152.414 15.7422 152.969 14.9531 153.375 14.25H157.336ZM202.406 62.4844V51.4688C202.406 50.8594 202.422 50.1562 202.453 49.3594C202.484 48.5625 202.539 47.875 202.617 47.2969H202.359C201.641 48.4844 200.617 49.4766 199.289 50.2734C197.961 51.0703 196.25 51.4688 194.156 51.4688C191.016 51.4688 188.492 50.3594 186.586 48.1406C184.68 45.9219 183.727 42.6094 183.727 38.2031C183.727 35.3125 184.164 32.875 185.039 30.8906C185.914 28.9062 187.148 27.4062 188.742 26.3906C190.352 25.3594 192.227 24.8438 194.367 24.8438C196.414 24.8438 198.086 25.25 199.383 26.0625C200.68 26.8594 201.695 27.8359 202.43 28.9922H202.617L203.203 25.3125H206.297V62.4844H202.406ZM194.883 48.2344C196.695 48.2344 198.148 47.8984 199.242 47.2266C200.336 46.5391 201.133 45.5078 201.633 44.1328C202.148 42.7578 202.422 41.0469 202.453 39V38.1797C202.453 34.8672 201.891 32.3594 200.766 30.6562C199.641 28.9375 197.68 28.0781 194.883 28.0781C192.477 28.0781 190.688 29 189.516 30.8438C188.344 32.6719 187.758 35.1562 187.758 38.2969C187.758 41.4375 188.344 43.8828 189.516 45.6328C190.688 47.3672 192.477 48.2344 194.883 48.2344ZM235.781 25.3125V51H232.594L232.031 47.3906H231.82C231.289 48.2812 230.602 49.0312 229.758 49.6406C228.914 50.25 227.961 50.7031 226.898 51C225.852 51.3125 224.734 51.4688 223.547 51.4688C221.516 51.4688 219.812 51.1406 218.438 50.4844C217.062 49.8281 216.023 48.8125 215.32 47.4375C214.633 46.0625 214.289 44.2969 214.289 42.1406V25.3125H218.227V41.8594C218.227 44 218.711 45.6016 219.68 46.6641C220.648 47.7109 222.125 48.2344 224.109 48.2344C226.016 48.2344 227.531 47.875 228.656 47.1562C229.797 46.4375 230.617 45.3828 231.117 43.9922C231.617 42.5859 231.867 40.8672 231.867 38.8359V25.3125H235.781ZM253.898 24.8438C256.086 24.8438 257.961 25.3281 259.523 26.2969C261.086 27.2656 262.281 28.625 263.109 30.375C263.938 32.1094 264.352 34.1406 264.352 36.4688V38.8828H246.609C246.656 41.8984 247.406 44.1953 248.859 45.7734C250.312 47.3516 252.359 48.1406 255 48.1406C256.625 48.1406 258.062 47.9922 259.312 47.6953C260.562 47.3984 261.859 46.9609 263.203 46.3828V49.8047C261.906 50.3828 260.617 50.8047 259.336 51.0703C258.07 51.3359 256.57 51.4688 254.836 51.4688C252.367 51.4688 250.211 50.9688 248.367 49.9688C246.539 48.9531 245.117 47.4688 244.102 45.5156C243.086 43.5625 242.578 41.1719 242.578 38.3438C242.578 35.5781 243.039 33.1875 243.961 31.1719C244.898 29.1406 246.211 27.5781 247.898 26.4844C249.602 25.3906 251.602 24.8438 253.898 24.8438ZM253.852 28.0312C251.773 28.0312 250.117 28.7109 248.883 30.0703C247.648 31.4297 246.914 33.3281 246.68 35.7656H260.273C260.258 34.2344 260.016 32.8906 259.547 31.7344C259.094 30.5625 258.398 29.6562 257.461 29.0156C256.523 28.3594 255.32 28.0312 253.852 28.0312ZM282.633 24.8438C283.148 24.8438 283.688 24.875 284.25 24.9375C284.812 24.9844 285.312 25.0547 285.75 25.1484L285.258 28.7578C284.836 28.6484 284.367 28.5625 283.852 28.5C283.336 28.4375 282.852 28.4062 282.398 28.4062C281.367 28.4062 280.391 28.6172 279.469 29.0391C278.562 29.4453 277.766 30.0391 277.078 30.8203C276.391 31.5859 275.852 32.5156 275.461 33.6094C275.07 34.6875 274.875 35.8906 274.875 37.2188V51H270.961V25.3125H274.195L274.617 30.0469H274.781C275.312 29.0938 275.953 28.2266 276.703 27.4453C277.453 26.6484 278.32 26.0156 279.305 25.5469C280.305 25.0781 281.414 24.8438 282.633 24.8438ZM13.9922 154.844C16.1797 154.844 18.0547 155.328 19.6172 156.297C21.1797 157.266 22.375 158.625 23.2031 160.375C24.0312 162.109 24.4453 164.141 24.4453 166.469V168.883H6.70312C6.75 171.898 7.5 174.195 8.95312 175.773C10.4062 177.352 12.4531 178.141 15.0938 178.141C16.7188 178.141 18.1562 177.992 19.4062 177.695C20.6562 177.398 21.9531 176.961 23.2969 176.383V179.805C22 180.383 20.7109 180.805 19.4297 181.07C18.1641 181.336 16.6641 181.469 14.9297 181.469C12.4609 181.469 10.3047 180.969 8.46094 179.969C6.63281 178.953 5.21094 177.469 4.19531 175.516C3.17969 173.562 2.67188 171.172 2.67188 168.344C2.67188 165.578 3.13281 163.188 4.05469 161.172C4.99219 159.141 6.30469 157.578 7.99219 156.484C9.69531 155.391 11.6953 154.844 13.9922 154.844ZM13.9453 158.031C11.8672 158.031 10.2109 158.711 8.97656 160.07C7.74219 161.43 7.00781 163.328 6.77344 165.766H20.3672C20.3516 164.234 20.1094 162.891 19.6406 161.734C19.1875 160.562 18.4922 159.656 17.5547 159.016C16.6172 158.359 15.4141 158.031 13.9453 158.031ZM47.6719 173.969C47.6719 175.609 47.2578 176.992 46.4297 178.117C45.6172 179.227 44.4453 180.062 42.9141 180.625C41.3984 181.188 39.5859 181.469 37.4766 181.469C35.6797 181.469 34.125 181.328 32.8125 181.047C31.5 180.766 30.3516 180.367 29.3672 179.852V176.266C30.4141 176.781 31.6641 177.25 33.1172 177.672C34.5703 178.094 36.0547 178.305 37.5703 178.305C39.7891 178.305 41.3984 177.945 42.3984 177.227C43.3984 176.508 43.8984 175.531 43.8984 174.297C43.8984 173.594 43.6953 172.977 43.2891 172.445C42.8984 171.898 42.2344 171.375 41.2969 170.875C40.3594 170.359 39.0625 169.797 37.4062 169.188C35.7656 168.562 34.3438 167.945 33.1406 167.336C31.9531 166.711 31.0312 165.953 30.375 165.062C29.7344 164.172 29.4141 163.016 29.4141 161.594C29.4141 159.422 30.2891 157.758 32.0391 156.602C33.8047 155.43 36.1172 154.844 38.9766 154.844C40.5234 154.844 41.9688 155 43.3125 155.312C44.6719 155.609 45.9375 156.016 47.1094 156.531L45.7969 159.648C44.7344 159.195 43.6016 158.812 42.3984 158.5C41.1953 158.188 39.9688 158.031 38.7188 158.031C36.9219 158.031 35.5391 158.328 34.5703 158.922C33.6172 159.516 33.1406 160.328 33.1406 161.359C33.1406 162.156 33.3594 162.812 33.7969 163.328C34.25 163.844 34.9688 164.328 35.9531 164.781C36.9375 165.234 38.2344 165.766 39.8438 166.375C41.4531 166.969 42.8438 167.586 44.0156 168.227C45.1875 168.852 46.0859 169.617 46.7109 170.523C47.3516 171.414 47.6719 172.562 47.6719 173.969ZM70.5469 173.969C70.5469 175.609 70.1328 176.992 69.3047 178.117C68.4922 179.227 67.3203 180.062 65.7891 180.625C64.2734 181.188 62.4609 181.469 60.3516 181.469C58.5547 181.469 57 181.328 55.6875 181.047C54.375 180.766 53.2266 180.367 52.2422 179.852V176.266C53.2891 176.781 54.5391 177.25 55.9922 177.672C57.4453 178.094 58.9297 178.305 60.4453 178.305C62.6641 178.305 64.2734 177.945 65.2734 177.227C66.2734 176.508 66.7734 175.531 66.7734 174.297C66.7734 173.594 66.5703 172.977 66.1641 172.445C65.7734 171.898 65.1094 171.375 64.1719 170.875C63.2344 170.359 61.9375 169.797 60.2812 169.188C58.6406 168.562 57.2188 167.945 56.0156 167.336C54.8281 166.711 53.9062 165.953 53.25 165.062C52.6094 164.172 52.2891 163.016 52.2891 161.594C52.2891 159.422 53.1641 157.758 54.9141 156.602C56.6797 155.43 58.9922 154.844 61.8516 154.844C63.3984 154.844 64.8438 155 66.1875 155.312C67.5469 155.609 68.8125 156.016 69.9844 156.531L68.6719 159.648C67.6094 159.195 66.4766 158.812 65.2734 158.5C64.0703 158.188 62.8438 158.031 61.5938 158.031C59.7969 158.031 58.4141 158.328 57.4453 158.922C56.4922 159.516 56.0156 160.328 56.0156 161.359C56.0156 162.156 56.2344 162.812 56.6719 163.328C57.125 163.844 57.8438 164.328 58.8281 164.781C59.8125 165.234 61.1094 165.766 62.7188 166.375C64.3281 166.969 65.7188 167.586 66.8906 168.227C68.0625 168.852 68.9609 169.617 69.5859 170.523C70.2266 171.414 70.5469 172.562 70.5469 173.969ZM86.6953 154.844C88.8828 154.844 90.7578 155.328 92.3203 156.297C93.8828 157.266 95.0781 158.625 95.9062 160.375C96.7344 162.109 97.1484 164.141 97.1484 166.469V168.883H79.4062C79.4531 171.898 80.2031 174.195 81.6562 175.773C83.1094 177.352 85.1562 178.141 87.7969 178.141C89.4219 178.141 90.8594 177.992 92.1094 177.695C93.3594 177.398 94.6562 176.961 96 176.383V179.805C94.7031 180.383 93.4141 180.805 92.1328 181.07C90.8672 181.336 89.3672 181.469 87.6328 181.469C85.1641 181.469 83.0078 180.969 81.1641 179.969C79.3359 178.953 77.9141 177.469 76.8984 175.516C75.8828 173.562 75.375 171.172 75.375 168.344C75.375 165.578 75.8359 163.188 76.7578 161.172C77.6953 159.141 79.0078 157.578 80.6953 156.484C82.3984 155.391 84.3984 154.844 86.6953 154.844ZM86.6484 158.031C84.5703 158.031 82.9141 158.711 81.6797 160.07C80.4453 161.43 79.7109 163.328 79.4766 165.766H93.0703C93.0547 164.234 92.8125 162.891 92.3438 161.734C91.8906 160.562 91.1953 159.656 90.2578 159.016C89.3203 158.359 88.1172 158.031 86.6484 158.031ZM126.117 154.844C128.305 154.844 130.18 155.328 131.742 156.297C133.305 157.266 134.5 158.625 135.328 160.375C136.156 162.109 136.57 164.141 136.57 166.469V168.883H118.828C118.875 171.898 119.625 174.195 121.078 175.773C122.531 177.352 124.578 178.141 127.219 178.141C128.844 178.141 130.281 177.992 131.531 177.695C132.781 177.398 134.078 176.961 135.422 176.383V179.805C134.125 180.383 132.836 180.805 131.555 181.07C130.289 181.336 128.789 181.469 127.055 181.469C124.586 181.469 122.43 180.969 120.586 179.969C118.758 178.953 117.336 177.469 116.32 175.516C115.305 173.562 114.797 171.172 114.797 168.344C114.797 165.578 115.258 163.188 116.18 161.172C117.117 159.141 118.43 157.578 120.117 156.484C121.82 155.391 123.82 154.844 126.117 154.844ZM126.07 158.031C123.992 158.031 122.336 158.711 121.102 160.07C119.867 161.43 119.133 163.328 118.898 165.766H132.492C132.477 164.234 132.234 162.891 131.766 161.734C131.312 160.562 130.617 159.656 129.68 159.016C128.742 158.359 127.539 158.031 126.07 158.031ZM132.562 144.227V144.695C132.25 145.148 131.82 145.695 131.273 146.336C130.742 146.961 130.148 147.625 129.492 148.328C128.836 149.016 128.172 149.672 127.5 150.297C126.844 150.922 126.234 151.461 125.672 151.914H123.07V151.352C123.57 150.758 124.117 150.047 124.711 149.219C125.305 148.375 125.883 147.516 126.445 146.641C127.008 145.75 127.477 144.945 127.852 144.227H132.562ZM177.797 168.109C177.797 170.219 177.523 172.102 176.977 173.758C176.43 175.414 175.641 176.812 174.609 177.953C173.578 179.094 172.328 179.969 170.859 180.578C169.406 181.172 167.758 181.469 165.914 181.469C164.195 181.469 162.617 181.172 161.18 180.578C159.758 179.969 158.523 179.094 157.477 177.953C156.445 176.812 155.641 175.414 155.062 173.758C154.5 172.102 154.219 170.219 154.219 168.109C154.219 165.297 154.695 162.906 155.648 160.938C156.602 158.953 157.961 157.445 159.727 156.414C161.508 155.367 163.625 154.844 166.078 154.844C168.422 154.844 170.469 155.367 172.219 156.414C173.984 157.461 175.352 158.977 176.32 160.961C177.305 162.93 177.797 165.312 177.797 168.109ZM158.25 168.109C158.25 170.172 158.523 171.961 159.07 173.477C159.617 174.992 160.461 176.164 161.602 176.992C162.742 177.82 164.211 178.234 166.008 178.234C167.789 178.234 169.25 177.82 170.391 176.992C171.547 176.164 172.398 174.992 172.945 173.477C173.492 171.961 173.766 170.172 173.766 168.109C173.766 166.062 173.492 164.297 172.945 162.812C172.398 161.312 171.555 160.156 170.414 159.344C169.273 158.531 167.797 158.125 165.984 158.125C163.312 158.125 161.352 159.008 160.102 160.773C158.867 162.539 158.25 164.984 158.25 168.109ZM200.906 181H196.992V144.531H200.906V181ZM230.344 155.312V181H227.156L226.594 177.391H226.383C225.852 178.281 225.164 179.031 224.32 179.641C223.477 180.25 222.523 180.703 221.461 181C220.414 181.312 219.297 181.469 218.109 181.469C216.078 181.469 214.375 181.141 213 180.484C211.625 179.828 210.586 178.812 209.883 177.438C209.195 176.062 208.852 174.297 208.852 172.141V155.312H212.789V171.859C212.789 174 213.273 175.602 214.242 176.664C215.211 177.711 216.688 178.234 218.672 178.234C220.578 178.234 222.094 177.875 223.219 177.156C224.359 176.438 225.18 175.383 225.68 173.992C226.18 172.586 226.43 170.867 226.43 168.836V155.312H230.344ZM245.742 192.531C242.367 192.531 239.766 191.898 237.938 190.633C236.109 189.383 235.195 187.625 235.195 185.359C235.195 183.75 235.703 182.375 236.719 181.234C237.75 180.094 239.172 179.336 240.984 178.961C240.312 178.648 239.734 178.18 239.25 177.555C238.781 176.93 238.547 176.211 238.547 175.398C238.547 174.461 238.805 173.641 239.32 172.938C239.852 172.219 240.656 171.531 241.734 170.875C240.391 170.328 239.297 169.406 238.453 168.109C237.625 166.797 237.211 165.273 237.211 163.539C237.211 161.695 237.594 160.125 238.359 158.828C239.125 157.516 240.234 156.516 241.688 155.828C243.141 155.141 244.898 154.797 246.961 154.797C247.414 154.797 247.867 154.82 248.32 154.867C248.789 154.898 249.234 154.953 249.656 155.031C250.078 155.094 250.445 155.172 250.758 155.266H259.57V157.773L254.836 158.359C255.305 158.969 255.695 159.703 256.008 160.562C256.32 161.422 256.477 162.375 256.477 163.422C256.477 165.984 255.609 168.023 253.875 169.539C252.141 171.039 249.758 171.789 246.727 171.789C246.008 171.789 245.273 171.727 244.523 171.602C243.758 172.023 243.172 172.492 242.766 173.008C242.375 173.523 242.18 174.117 242.18 174.789C242.18 175.289 242.328 175.688 242.625 175.984C242.938 176.281 243.383 176.5 243.961 176.641C244.539 176.766 245.234 176.828 246.047 176.828H250.57C253.367 176.828 255.508 177.414 256.992 178.586C258.492 179.758 259.242 181.469 259.242 183.719C259.242 186.562 258.086 188.742 255.773 190.258C253.461 191.773 250.117 192.531 245.742 192.531ZM245.859 189.484C247.984 189.484 249.742 189.266 251.133 188.828C252.539 188.406 253.586 187.789 254.273 186.977C254.977 186.18 255.328 185.227 255.328 184.117C255.328 183.086 255.094 182.305 254.625 181.773C254.156 181.258 253.469 180.914 252.562 180.742C251.656 180.555 250.547 180.461 249.234 180.461H244.781C243.625 180.461 242.617 180.641 241.758 181C240.898 181.359 240.234 181.891 239.766 182.594C239.312 183.297 239.086 184.172 239.086 185.219C239.086 186.609 239.672 187.664 240.844 188.383C242.016 189.117 243.688 189.484 245.859 189.484ZM246.867 168.953C248.727 168.953 250.125 168.484 251.062 167.547C252 166.609 252.469 165.242 252.469 163.445C252.469 161.523 251.992 160.086 251.039 159.133C250.086 158.164 248.68 157.68 246.82 157.68C245.039 157.68 243.664 158.18 242.695 159.18C241.742 160.164 241.266 161.609 241.266 163.516C241.266 165.266 241.75 166.609 242.719 167.547C243.688 168.484 245.07 168.953 246.867 168.953ZM274.242 154.891C277.305 154.891 279.578 155.578 281.062 156.953C282.547 158.328 283.289 160.523 283.289 163.539V181H280.453L279.703 177.203H279.516C278.797 178.141 278.047 178.93 277.266 179.57C276.484 180.195 275.578 180.672 274.547 181C273.531 181.312 272.281 181.469 270.797 181.469C269.234 181.469 267.844 181.195 266.625 180.648C265.422 180.102 264.469 179.273 263.766 178.164C263.078 177.055 262.734 175.648 262.734 173.945C262.734 171.383 263.75 169.414 265.781 168.039C267.812 166.664 270.906 165.914 275.062 165.789L279.492 165.602V164.031C279.492 161.812 279.016 160.258 278.062 159.367C277.109 158.477 275.766 158.031 274.031 158.031C272.688 158.031 271.406 158.227 270.188 158.617C268.969 159.008 267.812 159.469 266.719 160L265.523 157.047C266.68 156.453 268.008 155.945 269.508 155.523C271.008 155.102 272.586 154.891 274.242 154.891ZM279.445 168.344L275.531 168.508C272.328 168.633 270.07 169.156 268.758 170.078C267.445 171 266.789 172.305 266.789 173.992C266.789 175.461 267.234 176.547 268.125 177.25C269.016 177.953 270.195 178.305 271.664 178.305C273.945 178.305 275.812 177.672 277.266 176.406C278.719 175.141 279.445 173.242 279.445 170.711V168.344ZM302.977 154.844C303.492 154.844 304.031 154.875 304.594 154.938C305.156 154.984 305.656 155.055 306.094 155.148L305.602 158.758C305.18 158.648 304.711 158.562 304.195 158.5C303.68 158.438 303.195 158.406 302.742 158.406C301.711 158.406 300.734 158.617 299.812 159.039C298.906 159.445 298.109 160.039 297.422 160.82C296.734 161.586 296.195 162.516 295.805 163.609C295.414 164.688 295.219 165.891 295.219 167.219V181H291.305V155.312H294.539L294.961 160.047H295.125C295.656 159.094 296.297 158.227 297.047 157.445C297.797 156.648 298.664 156.016 299.648 155.547C300.648 155.078 301.758 154.844 302.977 154.844ZM333.703 181.469C331.391 181.469 329.352 180.992 327.586 180.039C325.82 179.086 324.445 177.633 323.461 175.68C322.477 173.727 321.984 171.266 321.984 168.297C321.984 165.188 322.5 162.648 323.531 160.68C324.578 158.695 326.016 157.227 327.844 156.273C329.672 155.32 331.75 154.844 334.078 154.844C335.359 154.844 336.594 154.977 337.781 155.242C338.984 155.492 339.969 155.812 340.734 156.203L339.562 159.461C338.781 159.148 337.875 158.867 336.844 158.617C335.828 158.367 334.875 158.242 333.984 158.242C332.203 158.242 330.719 158.625 329.531 159.391C328.359 160.156 327.477 161.281 326.883 162.766C326.305 164.25 326.016 166.078 326.016 168.25C326.016 170.328 326.297 172.102 326.859 173.57C327.438 175.039 328.289 176.164 329.414 176.945C330.555 177.711 331.977 178.094 333.68 178.094C335.039 178.094 336.266 177.953 337.359 177.672C338.453 177.375 339.445 177.031 340.336 176.641V180.109C339.477 180.547 338.516 180.883 337.453 181.117C336.406 181.352 335.156 181.469 333.703 181.469ZM356.32 154.844C358.508 154.844 360.383 155.328 361.945 156.297C363.508 157.266 364.703 158.625 365.531 160.375C366.359 162.109 366.773 164.141 366.773 166.469V168.883H349.031C349.078 171.898 349.828 174.195 351.281 175.773C352.734 177.352 354.781 178.141 357.422 178.141C359.047 178.141 360.484 177.992 361.734 177.695C362.984 177.398 364.281 176.961 365.625 176.383V179.805C364.328 180.383 363.039 180.805 361.758 181.07C360.492 181.336 358.992 181.469 357.258 181.469C354.789 181.469 352.633 180.969 350.789 179.969C348.961 178.953 347.539 177.469 346.523 175.516C345.508 173.562 345 171.172 345 168.344C345 165.578 345.461 163.188 346.383 161.172C347.32 159.141 348.633 157.578 350.32 156.484C352.023 155.391 354.023 154.844 356.32 154.844ZM356.273 158.031C354.195 158.031 352.539 158.711 351.305 160.07C350.07 161.43 349.336 163.328 349.102 165.766H362.695C362.68 164.234 362.438 162.891 361.969 161.734C361.516 160.562 360.82 159.656 359.883 159.016C358.945 158.359 357.742 158.031 356.273 158.031ZM385.055 154.844C385.57 154.844 386.109 154.875 386.672 154.938C387.234 154.984 387.734 155.055 388.172 155.148L387.68 158.758C387.258 158.648 386.789 158.562 386.273 158.5C385.758 158.438 385.273 158.406 384.82 158.406C383.789 158.406 382.812 158.617 381.891 159.039C380.984 159.445 380.188 160.039 379.5 160.82C378.812 161.586 378.273 162.516 377.883 163.609C377.492 164.688 377.297 165.891 377.297 167.219V181H373.383V155.312H376.617L377.039 160.047H377.203C377.734 159.094 378.375 158.227 379.125 157.445C379.875 156.648 380.742 156.016 381.727 155.547C382.727 155.078 383.836 154.844 385.055 154.844ZM401.32 178.281C401.961 178.281 402.617 178.227 403.289 178.117C403.961 178.008 404.508 177.875 404.93 177.719V180.742C404.477 180.945 403.844 181.117 403.031 181.258C402.234 181.398 401.453 181.469 400.688 181.469C399.328 181.469 398.094 181.234 396.984 180.766C395.875 180.281 394.984 179.469 394.312 178.328C393.656 177.188 393.328 175.609 393.328 173.594V158.359H389.672V156.461L393.352 154.938L394.898 149.359H397.242V155.312H404.766V158.359H397.242V173.477C397.242 175.086 397.609 176.289 398.344 177.086C399.094 177.883 400.086 178.281 401.32 178.281ZM432.281 168.109C432.281 170.219 432.008 172.102 431.461 173.758C430.914 175.414 430.125 176.812 429.094 177.953C428.062 179.094 426.812 179.969 425.344 180.578C423.891 181.172 422.242 181.469 420.398 181.469C418.68 181.469 417.102 181.172 415.664 180.578C414.242 179.969 413.008 179.094 411.961 177.953C410.93 176.812 410.125 175.414 409.547 173.758C408.984 172.102 408.703 170.219 408.703 168.109C408.703 165.297 409.18 162.906 410.133 160.938C411.086 158.953 412.445 157.445 414.211 156.414C415.992 155.367 418.109 154.844 420.562 154.844C422.906 154.844 424.953 155.367 426.703 156.414C428.469 157.461 429.836 158.977 430.805 160.961C431.789 162.93 432.281 165.312 432.281 168.109ZM412.734 168.109C412.734 170.172 413.008 171.961 413.555 173.477C414.102 174.992 414.945 176.164 416.086 176.992C417.227 177.82 418.695 178.234 420.492 178.234C422.273 178.234 423.734 177.82 424.875 176.992C426.031 176.164 426.883 174.992 427.43 173.477C427.977 171.961 428.25 170.172 428.25 168.109C428.25 166.062 427.977 164.297 427.43 162.812C426.883 161.312 426.039 160.156 424.898 159.344C423.758 158.531 422.281 158.125 420.469 158.125C417.797 158.125 415.836 159.008 414.586 160.773C413.352 162.539 412.734 164.984 412.734 168.109Z" fill="black"/>
<path d="M14.3906 116.469C11.9375 116.469 9.8125 115.992 8.01562 115.039C6.21875 114.086 4.83594 112.625 3.86719 110.656C2.89844 108.688 2.41406 106.188 2.41406 103.156C2.41406 100 2.94531 97.4219 4.00781 95.4219C5.07031 93.4219 6.53906 91.9453 8.41406 90.9922C10.3047 90.0391 12.4688 89.5625 14.9062 89.5625C16.4531 89.5625 17.8516 89.7188 19.1016 90.0312C20.3672 90.3281 21.4375 90.6953 22.3125 91.1328L20.6719 95.5391C19.7188 95.1484 18.7422 94.8203 17.7422 94.5547C16.7422 94.2891 15.7812 94.1562 14.8594 94.1562C13.3438 94.1562 12.0781 94.4922 11.0625 95.1641C10.0625 95.8359 9.3125 96.8359 8.8125 98.1641C8.32812 99.4922 8.08594 101.141 8.08594 103.109C8.08594 105.016 8.33594 106.625 8.83594 107.938C9.33594 109.234 10.0781 110.219 11.0625 110.891C12.0469 111.547 13.2578 111.875 14.6953 111.875C16.1172 111.875 17.3906 111.703 18.5156 111.359C19.6406 111.016 20.7031 110.57 21.7031 110.023V114.805C20.7188 115.367 19.6641 115.781 18.5391 116.047C17.4141 116.328 16.0312 116.469 14.3906 116.469ZM40.9453 89.5625C41.3828 89.5625 41.8594 89.5859 42.375 89.6328C42.8906 89.6797 43.3359 89.7422 43.7109 89.8203L43.1953 94.9766C42.8672 94.8828 42.4609 94.8125 41.9766 94.7656C41.5078 94.7188 41.0859 94.6953 40.7109 94.6953C39.7266 94.6953 38.7891 94.8594 37.8984 95.1875C37.0078 95.5 36.2188 95.9844 35.5312 96.6406C34.8438 97.2812 34.3047 98.0859 33.9141 99.0547C33.5234 100.023 33.3281 101.148 33.3281 102.43V116H27.7969V90.0547H32.1094L32.8594 94.625H33.1172C33.6328 93.7031 34.2734 92.8594 35.0391 92.0938C35.8047 91.3281 36.6797 90.7188 37.6641 90.2656C38.6641 89.7969 39.7578 89.5625 40.9453 89.5625ZM54.0234 90.0547V116H48.5156V90.0547H54.0234ZM51.3047 80.1172C52.1484 80.1172 52.875 80.3438 53.4844 80.7969C54.1094 81.25 54.4219 82.0312 54.4219 83.1406C54.4219 84.2344 54.1094 85.0156 53.4844 85.4844C52.875 85.9375 52.1484 86.1641 51.3047 86.1641C50.4297 86.1641 49.6875 85.9375 49.0781 85.4844C48.4844 85.0156 48.1875 84.2344 48.1875 83.1406C48.1875 82.0312 48.4844 81.25 49.0781 80.7969C49.6875 80.3438 50.4297 80.1172 51.3047 80.1172ZM72.0938 89.5625C75.375 89.5625 77.8516 90.2891 79.5234 91.7422C81.2109 93.1953 82.0547 95.4609 82.0547 98.5391V116H78.1406L77.0859 112.32H76.8984C76.1641 113.258 75.4062 114.031 74.625 114.641C73.8438 115.25 72.9375 115.703 71.9062 116C70.8906 116.312 69.6484 116.469 68.1797 116.469C66.6328 116.469 65.25 116.188 64.0312 115.625C62.8125 115.047 61.8516 114.172 61.1484 113C60.4453 111.828 60.0938 110.344 60.0938 108.547C60.0938 105.875 61.0859 103.867 63.0703 102.523C65.0703 101.18 68.0859 100.438 72.1172 100.297L76.6172 100.133V98.7734C76.6172 96.9766 76.1953 95.6953 75.3516 94.9297C74.5234 94.1641 73.3516 93.7812 71.8359 93.7812C70.5391 93.7812 69.2812 93.9688 68.0625 94.3438C66.8438 94.7188 65.6562 95.1797 64.5 95.7266L62.7188 91.8359C63.9844 91.1641 65.4219 90.6172 67.0312 90.1953C68.6562 89.7734 70.3438 89.5625 72.0938 89.5625ZM76.5938 103.602L73.2422 103.719C70.4922 103.812 68.5625 104.281 67.4531 105.125C66.3438 105.969 65.7891 107.125 65.7891 108.594C65.7891 109.875 66.1719 110.812 66.9375 111.406C67.7031 111.984 68.7109 112.273 69.9609 112.273C71.8672 112.273 73.4453 111.734 74.6953 110.656C75.9609 109.562 76.5938 107.961 76.5938 105.852V103.602ZM102.914 89.5625C103.352 89.5625 103.828 89.5859 104.344 89.6328C104.859 89.6797 105.305 89.7422 105.68 89.8203L105.164 94.9766C104.836 94.8828 104.43 94.8125 103.945 94.7656C103.477 94.7188 103.055 94.6953 102.68 94.6953C101.695 94.6953 100.758 94.8594 99.8672 95.1875C98.9766 95.5 98.1875 95.9844 97.5 96.6406C96.8125 97.2812 96.2734 98.0859 95.8828 99.0547C95.4922 100.023 95.2969 101.148 95.2969 102.43V116H89.7656V90.0547H94.0781L94.8281 94.625H95.0859C95.6016 93.7031 96.2422 92.8594 97.0078 92.0938C97.7734 91.3281 98.6484 90.7188 99.6328 90.2656C100.633 89.7969 101.727 89.5625 102.914 89.5625ZM166.289 116L156.422 90.0547H162.258L167.602 105.289C167.945 106.258 168.258 107.305 168.539 108.43C168.82 109.555 169.016 110.5 169.125 111.266H169.312C169.422 110.469 169.633 109.516 169.945 108.406C170.258 107.281 170.578 106.242 170.906 105.289L176.25 90.0547H182.062L172.195 116H166.289ZM196.336 89.5625C198.648 89.5625 200.633 90.0391 202.289 90.9922C203.945 91.9453 205.219 93.2969 206.109 95.0469C207 96.7969 207.445 98.8906 207.445 101.328V104.281H190.125C190.188 106.797 190.859 108.734 192.141 110.094C193.438 111.453 195.25 112.133 197.578 112.133C199.234 112.133 200.719 111.977 202.031 111.664C203.359 111.336 204.727 110.859 206.133 110.234V114.711C204.836 115.32 203.516 115.766 202.172 116.047C200.828 116.328 199.219 116.469 197.344 116.469C194.797 116.469 192.555 115.977 190.617 114.992C188.695 113.992 187.188 112.508 186.094 110.539C185.016 108.57 184.477 106.125 184.477 103.203C184.477 100.297 184.969 97.8281 185.953 95.7969C186.938 93.7656 188.32 92.2188 190.102 91.1562C191.883 90.0938 193.961 89.5625 196.336 89.5625ZM196.336 93.7109C194.602 93.7109 193.195 94.2734 192.117 95.3984C191.055 96.5234 190.43 98.1719 190.242 100.344H202.055C202.039 99.0469 201.82 97.8984 201.398 96.8984C200.992 95.8984 200.367 95.1172 199.523 94.5547C198.695 93.9922 197.633 93.7109 196.336 93.7109ZM227.18 89.5625C230.102 89.5625 232.375 90.3203 234 91.8359C235.641 93.3359 236.461 95.75 236.461 99.0781V116H230.953V100.109C230.953 98.0938 230.539 96.5859 229.711 95.5859C228.883 94.5703 227.602 94.0625 225.867 94.0625C223.352 94.0625 221.602 94.8359 220.617 96.3828C219.648 97.9297 219.164 100.172 219.164 103.109V116H213.656V90.0547H217.945L218.719 93.5703H219.023C219.586 92.6641 220.281 91.9219 221.109 91.3438C221.953 90.75 222.891 90.3047 223.922 90.0078C224.969 89.7109 226.055 89.5625 227.18 89.5625ZM252.891 116.469C249.797 116.469 247.312 115.344 245.438 113.094C243.578 110.828 242.648 107.492 242.648 103.086C242.648 98.6328 243.594 95.2656 245.484 92.9844C247.391 90.7031 249.898 89.5625 253.008 89.5625C254.32 89.5625 255.469 89.7422 256.453 90.1016C257.438 90.4453 258.281 90.9141 258.984 91.5078C259.703 92.1016 260.312 92.7656 260.812 93.5H261.07C260.992 93.0156 260.898 92.3203 260.789 91.4141C260.695 90.4922 260.648 89.6406 260.648 88.8594V79.5312H266.18V116H261.867L260.883 112.461H260.648C260.18 113.211 259.586 113.891 258.867 114.5C258.164 115.094 257.32 115.57 256.336 115.93C255.367 116.289 254.219 116.469 252.891 116.469ZM254.438 111.992C256.797 111.992 258.461 111.312 259.43 109.953C260.398 108.594 260.898 106.555 260.93 103.836V103.109C260.93 100.203 260.461 97.9766 259.523 96.4297C258.586 94.8672 256.875 94.0859 254.391 94.0859C252.406 94.0859 250.891 94.8906 249.844 96.5C248.812 98.0938 248.297 100.32 248.297 103.18C248.297 106.039 248.812 108.227 249.844 109.742C250.891 111.242 252.422 111.992 254.438 111.992ZM284.414 89.5625C286.727 89.5625 288.711 90.0391 290.367 90.9922C292.023 91.9453 293.297 93.2969 294.188 95.0469C295.078 96.7969 295.523 98.8906 295.523 101.328V104.281H278.203C278.266 106.797 278.938 108.734 280.219 110.094C281.516 111.453 283.328 112.133 285.656 112.133C287.312 112.133 288.797 111.977 290.109 111.664C291.438 111.336 292.805 110.859 294.211 110.234V114.711C292.914 115.32 291.594 115.766 290.25 116.047C288.906 116.328 287.297 116.469 285.422 116.469C282.875 116.469 280.633 115.977 278.695 114.992C276.773 113.992 275.266 112.508 274.172 110.539C273.094 108.57 272.555 106.125 272.555 103.203C272.555 100.297 273.047 97.8281 274.031 95.7969C275.016 93.7656 276.398 92.2188 278.18 91.1562C279.961 90.0938 282.039 89.5625 284.414 89.5625ZM284.414 93.7109C282.68 93.7109 281.273 94.2734 280.195 95.3984C279.133 96.5234 278.508 98.1719 278.32 100.344H290.133C290.117 99.0469 289.898 97.8984 289.477 96.8984C289.07 95.8984 288.445 95.1172 287.602 94.5547C286.773 93.9922 285.711 93.7109 284.414 93.7109ZM314.883 89.5625C315.32 89.5625 315.797 89.5859 316.312 89.6328C316.828 89.6797 317.273 89.7422 317.648 89.8203L317.133 94.9766C316.805 94.8828 316.398 94.8125 315.914 94.7656C315.445 94.7188 315.023 94.6953 314.648 94.6953C313.664 94.6953 312.727 94.8594 311.836 95.1875C310.945 95.5 310.156 95.9844 309.469 96.6406C308.781 97.2812 308.242 98.0859 307.852 99.0547C307.461 100.023 307.266 101.148 307.266 102.43V116H301.734V90.0547H306.047L306.797 94.625H307.055C307.57 93.7031 308.211 92.8594 308.977 92.0938C309.742 91.3281 310.617 90.7188 311.602 90.2656C312.602 89.7969 313.695 89.5625 314.883 89.5625ZM382.781 116.469C380.328 116.469 378.203 115.992 376.406 115.039C374.609 114.086 373.227 112.625 372.258 110.656C371.289 108.688 370.805 106.188 370.805 103.156C370.805 100 371.336 97.4219 372.398 95.4219C373.461 93.4219 374.93 91.9453 376.805 90.9922C378.695 90.0391 380.859 89.5625 383.297 89.5625C384.844 89.5625 386.242 89.7188 387.492 90.0312C388.758 90.3281 389.828 90.6953 390.703 91.1328L389.062 95.5391C388.109 95.1484 387.133 94.8203 386.133 94.5547C385.133 94.2891 384.172 94.1562 383.25 94.1562C381.734 94.1562 380.469 94.4922 379.453 95.1641C378.453 95.8359 377.703 96.8359 377.203 98.1641C376.719 99.4922 376.477 101.141 376.477 103.109C376.477 105.016 376.727 106.625 377.227 107.938C377.727 109.234 378.469 110.219 379.453 110.891C380.438 111.547 381.648 111.875 383.086 111.875C384.508 111.875 385.781 111.703 386.906 111.359C388.031 111.016 389.094 110.57 390.094 110.023V114.805C389.109 115.367 388.055 115.781 386.93 116.047C385.805 116.328 384.422 116.469 382.781 116.469ZM409.336 89.5625C409.773 89.5625 410.25 89.5859 410.766 89.6328C411.281 89.6797 411.727 89.7422 412.102 89.8203L411.586 94.9766C411.258 94.8828 410.852 94.8125 410.367 94.7656C409.898 94.7188 409.477 94.6953 409.102 94.6953C408.117 94.6953 407.18 94.8594 406.289 95.1875C405.398 95.5 404.609 95.9844 403.922 96.6406C403.234 97.2812 402.695 98.0859 402.305 99.0547C401.914 100.023 401.719 101.148 401.719 102.43V116H396.188V90.0547H400.5L401.25 94.625H401.508C402.023 93.7031 402.664 92.8594 403.43 92.0938C404.195 91.3281 405.07 90.7188 406.055 90.2656C407.055 89.7969 408.148 89.5625 409.336 89.5625ZM427.242 89.5625C429.555 89.5625 431.539 90.0391 433.195 90.9922C434.852 91.9453 436.125 93.2969 437.016 95.0469C437.906 96.7969 438.352 98.8906 438.352 101.328V104.281H421.031C421.094 106.797 421.766 108.734 423.047 110.094C424.344 111.453 426.156 112.133 428.484 112.133C430.141 112.133 431.625 111.977 432.938 111.664C434.266 111.336 435.633 110.859 437.039 110.234V114.711C435.742 115.32 434.422 115.766 433.078 116.047C431.734 116.328 430.125 116.469 428.25 116.469C425.703 116.469 423.461 115.977 421.523 114.992C419.602 113.992 418.094 112.508 417 110.539C415.922 108.57 415.383 106.125 415.383 103.203C415.383 100.297 415.875 97.8281 416.859 95.7969C417.844 93.7656 419.227 92.2188 421.008 91.1562C422.789 90.0938 424.867 89.5625 427.242 89.5625ZM427.242 93.7109C425.508 93.7109 424.102 94.2734 423.023 95.3984C421.961 96.5234 421.336 98.1719 421.148 100.344H432.961C432.945 99.0469 432.727 97.8984 432.305 96.8984C431.898 95.8984 431.273 95.1172 430.43 94.5547C429.602 93.9922 428.539 93.7109 427.242 93.7109ZM462 108.594C462 110.297 461.586 111.734 460.758 112.906C459.93 114.078 458.719 114.969 457.125 115.578C455.547 116.172 453.609 116.469 451.312 116.469C449.5 116.469 447.938 116.336 446.625 116.07C445.328 115.82 444.102 115.43 442.945 114.898V110.141C444.18 110.719 445.562 111.219 447.094 111.641C448.641 112.062 450.102 112.273 451.477 112.273C453.289 112.273 454.594 111.992 455.391 111.43C456.188 110.852 456.586 110.086 456.586 109.133C456.586 108.57 456.422 108.07 456.094 107.633C455.781 107.18 455.188 106.719 454.312 106.25C453.453 105.766 452.188 105.188 450.516 104.516C448.875 103.859 447.492 103.203 446.367 102.547C445.242 101.891 444.391 101.102 443.812 100.18C443.234 99.2422 442.945 98.0469 442.945 96.5938C442.945 94.2969 443.852 92.5547 445.664 91.3672C447.492 90.1641 449.906 89.5625 452.906 89.5625C454.5 89.5625 456 89.7266 457.406 90.0547C458.828 90.3672 460.219 90.8281 461.578 91.4375L459.844 95.5859C458.672 95.0703 457.492 94.6484 456.305 94.3203C455.133 93.9766 453.938 93.8047 452.719 93.8047C451.297 93.8047 450.211 94.0234 449.461 94.4609C448.727 94.8984 448.359 95.5234 448.359 96.3359C448.359 96.9453 448.539 97.4609 448.898 97.8828C449.258 98.3047 449.875 98.7266 450.75 99.1484C451.641 99.5703 452.875 100.094 454.453 100.719C456 101.312 457.336 101.938 458.461 102.594C459.602 103.234 460.477 104.023 461.086 104.961C461.695 105.898 462 107.109 462 108.594ZM478.406 116.469C475.953 116.469 473.828 115.992 472.031 115.039C470.234 114.086 468.852 112.625 467.883 110.656C466.914 108.688 466.43 106.188 466.43 103.156C466.43 100 466.961 97.4219 468.023 95.4219C469.086 93.4219 470.555 91.9453 472.43 90.9922C474.32 90.0391 476.484 89.5625 478.922 89.5625C480.469 89.5625 481.867 89.7188 483.117 90.0312C484.383 90.3281 485.453 90.6953 486.328 91.1328L484.688 95.5391C483.734 95.1484 482.758 94.8203 481.758 94.5547C480.758 94.2891 479.797 94.1562 478.875 94.1562C477.359 94.1562 476.094 94.4922 475.078 95.1641C474.078 95.8359 473.328 96.8359 472.828 98.1641C472.344 99.4922 472.102 101.141 472.102 103.109C472.102 105.016 472.352 106.625 472.852 107.938C473.352 109.234 474.094 110.219 475.078 110.891C476.062 111.547 477.273 111.875 478.711 111.875C480.133 111.875 481.406 111.703 482.531 111.359C483.656 111.016 484.719 110.57 485.719 110.023V114.805C484.734 115.367 483.68 115.781 482.555 116.047C481.43 116.328 480.047 116.469 478.406 116.469ZM502.148 89.5625C504.461 89.5625 506.445 90.0391 508.102 90.9922C509.758 91.9453 511.031 93.2969 511.922 95.0469C512.812 96.7969 513.258 98.8906 513.258 101.328V104.281H495.938C496 106.797 496.672 108.734 497.953 110.094C499.25 111.453 501.062 112.133 503.391 112.133C505.047 112.133 506.531 111.977 507.844 111.664C509.172 111.336 510.539 110.859 511.945 110.234V114.711C510.648 115.32 509.328 115.766 507.984 116.047C506.641 116.328 505.031 116.469 503.156 116.469C500.609 116.469 498.367 115.977 496.43 114.992C494.508 113.992 493 112.508 491.906 110.539C490.828 108.57 490.289 106.125 490.289 103.203C490.289 100.297 490.781 97.8281 491.766 95.7969C492.75 93.7656 494.133 92.2188 495.914 91.1562C497.695 90.0938 499.773 89.5625 502.148 89.5625ZM502.148 93.7109C500.414 93.7109 499.008 94.2734 497.93 95.3984C496.867 96.5234 496.242 98.1719 496.055 100.344H507.867C507.852 99.0469 507.633 97.8984 507.211 96.8984C506.805 95.8984 506.18 95.1172 505.336 94.5547C504.508 93.9922 503.445 93.7109 502.148 93.7109ZM532.617 89.5625C533.055 89.5625 533.531 89.5859 534.047 89.6328C534.562 89.6797 535.008 89.7422 535.383 89.8203L534.867 94.9766C534.539 94.8828 534.133 94.8125 533.648 94.7656C533.18 94.7188 532.758 94.6953 532.383 94.6953C531.398 94.6953 530.461 94.8594 529.57 95.1875C528.68 95.5 527.891 95.9844 527.203 96.6406C526.516 97.2812 525.977 98.0859 525.586 99.0547C525.195 100.023 525 101.148 525 102.43V116H519.469V90.0547H523.781L524.531 94.625H524.789C525.305 93.7031 525.945 92.8594 526.711 92.0938C527.477 91.3281 528.352 90.7188 529.336 90.2656C530.336 89.7969 531.43 89.5625 532.617 89.5625ZM545.742 110.422L546.07 110.961C545.789 112.086 545.43 113.297 544.992 114.594C544.555 115.891 544.078 117.188 543.562 118.484C543.047 119.797 542.523 121.031 541.992 122.188H537.961C538.289 120.922 538.602 119.594 538.898 118.203C539.211 116.828 539.492 115.469 539.742 114.125C540.008 112.766 540.219 111.531 540.375 110.422H545.742Z" fill="#5D47E9"/>
<path d="M145.061 105.061C145.646 104.475 145.646 103.525 145.061 102.939L135.515 93.3934C134.929 92.8076 133.979 92.8076 133.393 93.3934C132.808 93.9792 132.808 94.9289 133.393 95.5147L141.879 104L133.393 112.485C132.808 113.071 132.808 114.021 133.393 114.607C133.979 115.192 134.929 115.192 135.515 114.607L145.061 105.061ZM119 105.5H144V102.5H119V105.5Z" fill="#5D47E9"/>
<path d="M357.061 105.061C357.646 104.475 357.646 103.525 357.061 102.939L347.515 93.3934C346.929 92.8076 345.979 92.8076 345.393 93.3934C344.808 93.9792 344.808 94.9289 345.393 95.5147L353.879 104L345.393 112.485C344.808 113.071 344.808 114.021 345.393 114.607C345.979 115.192 346.929 115.192 347.515 114.607L357.061 105.061ZM331 105.5H356V102.5H331V105.5Z" fill="#5D47E9"/>
</svg>
