<?xml version="1.0" encoding="UTF-8"?>
<svg version="1.1" xmlns="http://www.w3.org/2000/svg" width="305" height="305">
<path d="M0 0 C0.66 0 1.32 0 2 0 C11.89028645 20.81919491 21.73414642 41.65656354 31.41259766 62.57519531 C34.24246903 68.68061451 37.09018164 74.77770425 39.9375 80.875 C40.52506953 82.13346148 41.11263463 83.39192502 41.70019531 84.65039062 C42.87798413 87.17290216 44.05590361 89.69535263 45.23388672 92.21777344 C48.44867947 99.10195367 51.66096974 105.98730212 54.87371826 112.87243652 C55.74782781 114.74569413 56.6219541 116.61894394 57.49609375 118.4921875 C57.78464233 119.11053467 58.07319092 119.72888184 58.3704834 120.3659668 C60.13000681 124.13633904 61.8901146 127.9064379 63.65066528 131.67633057 C70.14454743 145.58183772 76.6273577 159.49230875 83.08374023 173.4152832 C85.98681565 179.67308276 88.89803989 185.92692814 91.8203125 192.17578125 C92.13897278 192.85744354 92.45763306 193.53910583 92.78594971 194.24142456 C94.32920011 197.5424705 95.87357029 200.84298378 97.41992188 204.14257812 C98.4998648 206.45172438 99.57544133 208.76292057 100.64550781 211.07666016 C101.44939901 212.81166254 102.26282403 214.54238173 103.09667969 216.26318359 C105.04136881 220.40855763 105.04136881 220.40855763 104.86181641 222.97558594 C103.63233249 225.8636541 101.92164536 226.67546097 99.25 228.28515625 C98.25790527 228.89238525 97.26581055 229.49961426 96.24365234 230.12524414 C95.17324707 230.76453857 94.1028418 231.40383301 93 232.0625 C90.78319306 233.41558415 88.56704961 234.7697559 86.3515625 236.125 C85.26133789 236.78757813 84.17111328 237.45015625 83.04785156 238.1328125 C79.11269123 240.54358679 75.23655972 243.03609457 71.375 245.5625 C65.10819162 249.64381204 58.812617 253.67739468 52.5 257.6875 C45.41161941 262.19135375 38.32792946 266.70231524 31.25488281 271.23022461 C29.10469233 272.60578526 26.9530248 273.97904013 24.79980469 275.34985352 C20.32114808 278.20533254 15.85910482 281.06915122 11.484375 284.08203125 C10.83855469 284.5205542 10.19273437 284.95907715 9.52734375 285.41088867 C7.89926458 286.52303671 6.28482547 287.65508463 4.671875 288.7890625 C2 290 2 290 -0.390625 289.24414062 C-2.86553532 288.06411227 -5.1180641 286.78830139 -7.421875 285.3046875 C-8.69454224 284.48979858 -8.69454224 284.48979858 -9.99291992 283.65844727 C-10.90275635 283.06990967 -11.81259277 282.48137207 -12.75 281.875 C-13.70430908 281.26261475 -14.65861816 280.65022949 -15.6418457 280.01928711 C-17.69086082 278.7041585 -19.73875688 277.38728505 -21.78564453 276.06884766 C-26.16497738 273.25018849 -30.55278275 270.44485319 -34.94042969 267.63916016 C-38.03806841 265.65806881 -41.13437948 263.67491792 -44.23046875 261.69140625 C-51.53691919 257.01351457 -58.85784983 252.35854185 -66.18359375 247.7109375 C-78.5087901 239.88788405 -90.77806168 231.98339419 -103 224 C-102.44281482 219.68707693 -101.4085114 216.31217996 -99.48046875 212.421875 C-98.95912354 211.35735107 -98.43777832 210.29282715 -97.90063477 209.19604492 C-97.33530029 208.0588501 -96.76996582 206.92165527 -96.1875 205.75 C-94.9881415 203.30535684 -93.79489182 200.85774702 -92.6015625 198.41015625 C-92.29785233 197.78889359 -91.99414215 197.16763092 -91.68122864 196.52754211 C-88.71871116 190.4552734 -85.87794342 184.32924783 -83.0625 178.1875 C-82.07178211 176.02987098 -81.08089407 173.87232009 -80.08984375 171.71484375 C-79.5882373 170.62284668 -79.08663086 169.53084961 -78.56982422 168.40576172 C-75.77580657 162.34409047 -72.95030588 156.2971305 -70.125 150.25 C-69.53466637 148.98608473 -68.94433434 147.72216872 -68.35400391 146.45825195 C-67.16511489 143.91313716 -65.9759579 141.36814776 -64.78662109 138.82324219 C-62.12851124 133.13540605 -59.4720534 127.44679885 -56.81640625 121.7578125 C-56.22969931 120.50095585 -55.64294789 119.24411997 -55.05615234 117.98730469 C-50.89835627 109.08136544 -46.75764469 100.16764458 -42.625 91.25 C-37.41013548 79.99809679 -32.13272468 68.7765474 -26.84207153 57.56015015 C-22.08240106 47.46612443 -17.38321892 37.34713737 -12.75415039 27.19238281 C-8.59689102 18.08334075 -4.31513066 9.03513778 0 0 Z M-2 7 C-1 10 -1 10 -1 10 Z M-3 11 C-11.12947667 32.49051244 -19.2547565 53.98247092 -27.3125 75.5 C-35.19155296 96.53769433 -43.12595135 117.55441469 -51.06280518 138.57035828 C-54.20416186 146.88936157 -57.3410639 155.21003724 -60.4765625 163.53125 C-61.82200112 167.10074503 -63.16752767 170.67020691 -64.51309204 174.23965454 C-65.36511811 176.50041814 -66.21683396 178.76129867 -67.06820679 181.02230835 C-68.25944948 184.18577209 -69.45184278 187.34879986 -70.64453125 190.51171875 C-71.0162999 191.499478 -71.38806854 192.48723724 -71.77110291 193.50492859 C-73.52091012 198.14112899 -75.29354978 202.76559047 -77.12646484 207.36962891 C-77.45627853 208.20105911 -77.78609222 209.03248932 -78.12590027 209.88911438 C-78.73749043 211.42429436 -79.35483786 212.95719925 -79.97920227 214.48722839 C-81.3526742 217.93446213 -82 220.22811112 -82 224 C-80.15615304 225.71826934 -78.41654421 227.11612768 -76.375 228.5625 C-75.17245198 229.44953866 -73.97065365 230.33759439 -72.76953125 231.2265625 C-72.1451416 231.68321289 -71.52075195 232.13986328 -70.87744141 232.61035156 C-67.88883556 234.82246398 -64.97727288 237.1294909 -62.0625 239.4375 C-60.88433331 240.36616297 -59.7059467 241.29454701 -58.52734375 242.22265625 C-57.9432373 242.6830127 -57.35913086 243.14336914 -56.75732422 243.61767578 C-55.02979098 244.97656619 -53.29874535 246.33083709 -51.56640625 247.68359375 C-44.6414283 253.09616361 -37.78960052 258.58966101 -30.98120117 264.14819336 C-25.93162874 268.26359182 -20.8217848 272.29568103 -15.68701172 276.30395508 C-11.69201354 279.43151807 -7.80658103 282.64658337 -4 286 C-3.34 285.67 -2.68 285.34 -2 285 C-3.10794922 283.5459375 -3.10794922 283.5459375 -4.23828125 282.0625 C-10.44554582 273.87522534 -16.426263 265.57870951 -22.20703125 257.0859375 C-25.15667178 252.75532413 -28.16604604 248.46821003 -31.1875 244.1875 C-31.93821777 243.11761841 -31.93821777 243.11761841 -32.70410156 242.02612305 C-34.92201113 238.87749665 -37.15773746 235.76099345 -39.53515625 232.73046875 C-40.26605469 231.78816406 -40.99695313 230.84585938 -41.75 229.875 C-42.38421875 229.08867187 -43.0184375 228.30234375 -43.671875 227.4921875 C-47.0212758 221.20713542 -44.19390169 213.22772101 -42.77539062 206.66137695 C-42.53746166 205.53260793 -42.2995327 204.4038389 -42.05439377 203.24086475 C-41.26171205 199.48854969 -40.45899137 195.73845599 -39.65625 191.98828125 C-39.0923948 189.33297153 -38.53068703 186.6772088 -37.96893311 184.02145386 C-36.77396751 178.37731596 -35.57403852 172.73425274 -34.37072754 167.09188843 C-32.65636367 159.0526385 -30.95117196 151.01146456 -29.24853945 142.96972287 C-24.34233538 119.79835087 -19.4158734 96.6312937 -14.47566223 73.46714878 C-12.91177113 66.13325494 -11.35218849 58.79845482 -9.79637146 51.46284389 C-8.77811761 46.6641963 -7.75244703 41.86721621 -6.72071457 37.07144928 C-6.10106331 34.18404858 -5.48765488 31.29534985 -4.87610626 28.4062233 C-4.46828468 26.48922795 -4.05262125 24.57390602 -3.63665771 22.65866089 C-3.40239075 21.54564606 -3.16812378 20.43263123 -2.92675781 19.28588867 C-2.72173645 18.32849289 -2.51671509 17.37109711 -2.30548096 16.38468933 C-1.80632091 13.85735918 -1.80632091 13.85735918 -3 11 Z " fill="#5E48E7" transform="translate(152,7)"/>
<path d="M0 0 C0.99 1.98 0.99 1.98 2 4 C1.34 4 0.68 4 0 4 C-0.21064087 4.77283325 -0.21064087 4.77283325 -0.42553711 5.5612793 C-2.97539161 14.48717569 -6.30569173 23.127745 -9.5625 31.8125 C-10.259433 33.67783899 -10.95620424 35.54323842 -11.65283203 37.40869141 C-20.69221625 61.59072091 -29.81398593 85.74206783 -38.92677307 109.89650726 C-43.05858244 120.84845045 -47.18559318 131.80218966 -51.30860901 142.75744629 C-53.07938512 147.46235321 -54.85067875 152.16706534 -56.62191391 156.87179947 C-58.03045571 160.61331073 -59.438673 164.35494345 -60.84613037 168.09686279 C-62.41071321 172.25636961 -63.97643093 176.41544784 -65.54296875 180.57421875 C-65.78671738 181.22154968 -66.030466 181.86888062 -66.28160095 182.53582764 C-69.46869315 190.99616002 -72.68633863 199.44321039 -76.0254364 207.84489441 C-77.21768751 210.86541212 -78.33305226 213.81626833 -79 217 C-78.4131543 217.27674561 -77.82630859 217.55349121 -77.22167969 217.83862305 C-75.11031717 218.942332 -73.3412822 220.13597537 -71.453125 221.58203125 C-70.44536011 222.35184326 -70.44536011 222.35184326 -69.41723633 223.13720703 C-68.70204834 223.69005371 -67.98686035 224.24290039 -67.25 224.8125 C-66.50065186 225.3885498 -65.75130371 225.96459961 -64.97924805 226.55810547 C-59.18202248 231.03603796 -53.47963122 235.62319627 -47.81152344 240.26293945 C-43.57936968 243.72622758 -39.31111475 247.13560139 -35 250.5 C-29.86998069 254.50619573 -24.79679477 258.57696166 -19.75 262.6875 C-19.07477295 263.23712402 -18.3995459 263.78674805 -17.70385742 264.35302734 C-14.78174514 266.73246675 -11.86093759 269.11348772 -8.94140625 271.49609375 C-8.07386719 272.19863281 -7.20632812 272.90117187 -6.3125 273.625 C-5.58675781 274.21539062 -4.86101562 274.80578125 -4.11328125 275.4140625 C-1.83233708 277.12582466 0.53229749 278.57383217 3 280 C2.67 280.66 2.34 281.32 2 282 C-8.26961418 275.81094508 -18.42357483 269.47883918 -28.45727539 262.91381836 C-34.16778516 259.18055398 -39.91175596 255.5064629 -45.6875 251.875 C-52.34871137 247.68601898 -58.97161232 243.44358557 -65.5690918 239.1550293 C-71.78245189 235.12350415 -78.04259825 231.16796074 -84.31835938 227.234375 C-89.60643363 223.91149457 -94.81948628 220.48812072 -100 217 C-99.44281482 212.68707693 -98.4085114 209.31217996 -96.48046875 205.421875 C-95.95912354 204.35735107 -95.43777832 203.29282715 -94.90063477 202.19604492 C-94.33530029 201.0588501 -93.76996582 199.92165527 -93.1875 198.75 C-91.9881415 196.30535684 -90.79489182 193.85774702 -89.6015625 191.41015625 C-89.29785233 190.78889359 -88.99414215 190.16763092 -88.68122864 189.52754211 C-85.71871116 183.4552734 -82.87794342 177.32924783 -80.0625 171.1875 C-79.07178211 169.02987098 -78.08089407 166.87232009 -77.08984375 164.71484375 C-76.5882373 163.62284668 -76.08663086 162.53084961 -75.56982422 161.40576172 C-72.77580657 155.34409047 -69.95030588 149.2971305 -67.125 143.25 C-66.53466637 141.98608473 -65.94433434 140.72216872 -65.35400391 139.45825195 C-64.16511489 136.91313716 -62.9759579 134.36814776 -61.78662109 131.82324219 C-59.12851124 126.13540605 -56.4720534 120.44679885 -53.81640625 114.7578125 C-53.22969931 113.50095585 -52.64294789 112.24411997 -52.05615234 110.98730469 C-47.89835627 102.08136544 -43.75764469 93.16764458 -39.625 84.25 C-34.41121374 73.00042331 -29.1359313 61.78067951 -23.84509277 50.56719971 C-19.006643 40.30969776 -14.24318249 30.02203507 -9.54321289 19.70019531 C-6.50877749 13.05541187 -3.36943666 6.48296673 0 0 Z " fill="#CAC2FA" transform="translate(149,14)"/>
<path d="M0 0 C0.66 1.32 1.32 2.64 2 4 C1.34 4 0.68 4 0 4 C-0.17704468 4.61324631 -0.35408936 5.22649261 -0.53649902 5.85832214 C-2.27689223 11.78585544 -4.23287056 17.58189617 -6.40625 23.36328125 C-6.88856079 24.65768631 -6.88856079 24.65768631 -7.38061523 25.97824097 C-8.41723045 28.75752693 -9.45848174 31.53504813 -10.5 34.3125 C-11.21699589 36.23145234 -11.93379131 38.1504796 -12.65039062 40.06958008 C-18.37988161 55.40004295 -24.16244614 70.71036037 -30 86 C-30.33 85.34 -30.66 84.68 -31 84 C-32.485 84.495 -32.485 84.495 -34 85 C-34.12375 84.360625 -34.2475 83.72125 -34.375 83.0625 C-34.58125 82.381875 -34.7875 81.70125 -35 81 C-35.66 80.67 -36.32 80.34 -37 80 C-35.49050638 75.07934912 -33.47910066 70.56860375 -31.25390625 65.9453125 C-30.88673996 65.17479553 -30.51957367 64.40427856 -30.14128113 63.6104126 C-29.35690518 61.96490617 -28.57104149 60.32010823 -27.78381348 58.67596436 C-25.73011637 54.38639561 -23.68716404 50.09172096 -21.64453125 45.796875 C-21.24128632 44.94946747 -20.83804138 44.10205994 -20.4225769 43.22897339 C-17.13363356 36.30655957 -13.91996203 29.35279619 -10.75 22.375 C-7.32164431 14.83236106 -3.82191796 7.35356367 0 0 Z " fill="#CFC7F9" transform="translate(149,14)"/>
<path d="M0 0 C2.76655418 1.29108381 5.04962067 2.7064804 7.3984375 4.65234375 C8.35472046 5.43822876 8.35472046 5.43822876 9.33032227 6.23999023 C10.34243774 7.08025757 10.34243774 7.08025757 11.375 7.9375 C12.8077814 9.11557201 14.24139117 10.2926372 15.67578125 11.46875 C16.39717285 12.06042969 17.11856445 12.65210938 17.86181641 13.26171875 C21.06196131 15.86334375 24.30908479 18.4030275 27.5625 20.9375 C31.15401625 23.73544887 34.70436085 26.55582355 38.125 29.5625 C40.47524237 31.5550968 42.26832819 32.7279554 45 34 C44.505 34.99 44.505 34.99 44 36 C28.06806832 26.39850977 12.46060543 16.34165777 -3 6 C-2.505 5.566875 -2.01 5.13375 -1.5 4.6875 C0.33218192 3.00259517 0.33218192 3.00259517 0 0 Z " fill="#D4CDF8" transform="translate(107,260)"/>
<path d="M0 0 C0.66 1.32 1.32 2.64 2 4 C1.34 4 0.68 4 0 4 C-0.17509598 4.60903168 -0.35019196 5.21806335 -0.53059387 5.84555054 C-2.30678557 11.90860167 -4.33209518 17.82159955 -6.57421875 23.7265625 C-6.90291458 24.60025482 -7.23161041 25.47394714 -7.57026672 26.37411499 C-8.60622363 29.12559853 -9.646773 31.87531766 -10.6875 34.625 C-11.39679075 36.50639494 -12.10577785 38.38790439 -12.81445312 40.26953125 C-14.5394663 44.84768351 -16.26859631 49.42426095 -18 54 C-18.99 53.34 -19.98 52.68 -21 52 C-21.66 52 -22.32 52 -23 52 C-23 52.99 -23 53.98 -23 55 C-23.66 55 -24.32 55 -25 55 C-23.12210613 48.97309829 -20.89484081 43.28576196 -18.1640625 37.59765625 C-17.62221817 36.45374672 -17.62221817 36.45374672 -17.06942749 35.28672791 C-15.92608924 32.87633439 -14.77557019 30.4694483 -13.625 28.0625 C-12.86152917 26.45398955 -12.09850496 24.84526704 -11.3359375 23.23632812 C-7.63900247 15.44968501 -3.91155993 7.68178185 0 0 Z " fill="#D2CCF7" transform="translate(149,14)"/>
<path d="M0 0 C2.97 0.495 2.97 0.495 6 1 C1.46014649 4.8514331 -3.4733339 7.9612025 -8.5 11.125 C-9.34175781 11.66253906 -10.18351563 12.20007813 -11.05078125 12.75390625 C-11.86933594 13.27082031 -12.68789062 13.78773438 -13.53125 14.3203125 C-14.26923828 14.78711426 -15.00722656 15.25391602 -15.76757812 15.73486328 C-18.11405163 17.06463425 -20.47706825 18.05417796 -23 19 C-23 18.34 -23 17.68 -23 17 C-22.01 17 -21.02 17 -20 17 C-20 16.34 -20 15.68 -20 15 C-19.34 15 -18.68 15 -18 15 C-18 14.34 -18 13.68 -18 13 C-17.34 13 -16.68 13 -16 13 C-15.67 12.01 -15.34 11.02 -15 10 C-14.01 10.33 -13.02 10.66 -12 11 C-12 10.34 -12 9.68 -12 9 C-10.02 8.67 -8.04 8.34 -6 8 C-5.67 6.68 -5.34 5.36 -5 4 C-4.34 4.33 -3.68 4.66 -3 5 C-3 4.34 -3 3.68 -3 3 C-2.01 3 -1.02 3 0 3 C0 2.01 0 1.02 0 0 Z " fill="#8171DE" transform="translate(247,232)"/>
<path d="M0 0 C0.66 1.32 1.32 2.64 2 4 C1.34 4 0.68 4 0 4 C-0.17015625 4.59425781 -0.3403125 5.18851563 -0.515625 5.80078125 C-1.31725322 8.54252033 -2.15435118 11.2715177 -3 14 C-3.30164063 15.00417969 -3.60328125 16.00835938 -3.9140625 17.04296875 C-4.23117188 18.01878906 -4.54828125 18.99460937 -4.875 20 C-5.16117188 20.9075 -5.44734375 21.815 -5.7421875 22.75 C-7.36172121 25.64705409 -8.88011377 26.09389443 -12 27 C-10.03170333 20.46150032 -7.44050976 14.49895432 -4.3125 8.4375 C-3.89677734 7.61958984 -3.48105469 6.80167969 -3.05273438 5.95898438 C-2.04067005 3.96975449 -1.02307153 1.9835846 0 0 Z " fill="#DDD9F4" transform="translate(149,14)"/>
<path d="M0 0 C0.66 0 1.32 0 2 0 C3.57089019 3.04834952 5.10125007 6.11535124 6.625 9.1875 C7.07101563 10.05181641 7.51703125 10.91613281 7.9765625 11.80664062 C11.16261542 18.30320166 11.16261542 18.30320166 10.2734375 22.11328125 C9.85320312 22.73589844 9.43296875 23.35851562 9 24 C8.67 24 8.34 24 8 24 C7.87625 23.195625 7.7525 22.39125 7.625 21.5625 C7.41875 20.716875 7.2125 19.87125 7 19 C6.34 18.67 5.68 18.34 5 18 C5 15.36 5 12.72 5 10 C4.34 10 3.68 10 3 10 C3 9.01 3 8.02 3 7 C2.01 7 1.02 7 0 7 C-1.125 2.25 -1.125 2.25 0 0 Z " fill="#7F6FDF" transform="translate(181,69)"/>
<path d="M0 0 C0.33 0 0.66 0 1 0 C0.85936865 2.29199177 0.71234057 4.58359186 0.5625 6.875 C0.48128906 8.15117188 0.40007812 9.42734375 0.31640625 10.7421875 C0 14 0 14 -1 16 C-1.31255647 18.85207778 -1.51037482 21.70496854 -1.71875 24.56640625 C-2 27 -2 27 -3 28 C-3.36760731 30.32817964 -3.70241581 32.6618385 -4 35 C-7.05027187 30.42459219 -5.43299 26.24474118 -4.44091797 21.1015625 C-3.79397181 17.89630649 -3.12028481 14.69780449 -2.4375 11.5 C-2.20353516 10.39140625 -1.96957031 9.2828125 -1.72851562 8.140625 C-1.1552633 5.42645073 -0.57902176 2.71294824 0 0 Z " fill="#8677DC" transform="translate(139,69)"/>
<path d="M0 0 C3.82886404 2.82791735 7.63782927 5.64723797 11.25 8.75 C13.49169375 10.58411307 15.35641161 11.88155876 18 13 C17.67 13.66 17.34 14.32 17 15 C14.01584578 13.21654158 11.03858697 11.4218827 8.0625 9.625 C7.21236328 9.11710937 6.36222656 8.60921875 5.48632812 8.0859375 C4.67744141 7.59609375 3.86855469 7.10625 3.03515625 6.6015625 C2.2862915 6.15119629 1.53742676 5.70083008 0.76586914 5.23681641 C-1 4 -1 4 -2 2 C-1.34 2 -0.68 2 0 2 C0 1.34 0 0.68 0 0 Z " fill="#DCD5F7" transform="translate(134,281)"/>
<path d="M0 0 C0.33 0 0.66 0 1 0 C1.45636453 8.4342927 0.17423358 15.85956596 -2 24 C-2.66 23.67 -3.32 23.34 -4 23 C-3.32545897 15.1753241 -1.73123042 7.65443386 0 0 Z " fill="#8678DD" transform="translate(113,192)"/>
<path d="M0 0 C0.66 0 1.32 0 2 0 C2.33 0.99 2.66 1.98 3 3 C-1.95 6.3 -6.9 9.6 -12 13 C-12.33 12.01 -12.66 11.02 -13 10 C-11.68 9.67 -10.36 9.34 -9 9 C-9 8.34 -9 7.68 -9 7 C-8.34 6.34 -7.68 5.68 -7 5 C-5.68 5 -4.36 5 -3 5 C-3 4.34 -3 3.68 -3 3 C-2.34 3 -1.68 3 -1 3 C-0.67 2.01 -0.34 1.02 0 0 Z " fill="#8474E2" transform="translate(207,258)"/>
<path d="M0 0 C0.66 0 1.32 0 2 0 C3.06080085 2.0736559 4.09809524 4.15935086 5.125 6.25 C5.70507812 7.41015625 6.28515625 8.5703125 6.8828125 9.765625 C8 13 8 13 7.1796875 15.421875 C6.59574219 16.20304687 6.59574219 16.20304687 6 17 C6 15.68 6 14.36 6 13 C5.34 13 4.68 13 4 13 C3.01 11.02 2.02 9.04 1 7 C0.67 7 0.34 7 0 7 C0 4.69 0 2.38 0 0 Z " fill="#7E6DDD" transform="translate(161,26)"/>
<path d="M0 0 C0.33 0 0.66 0 1 0 C1.18451025 10.55808656 1.18451025 10.55808656 0 15 C-0.66 15 -1.32 15 -2 15 C-1.938125 16.423125 -1.938125 16.423125 -1.875 17.875 C-2 21 -2 21 -4 23 C-3.32545897 15.1753241 -1.73123042 7.65443386 0 0 Z " fill="#8E7FDD" transform="translate(123,145)"/>
<path d="M0 0 C3.77952756 1.51181102 3.77952756 1.51181102 4.875 3.9375 C6.52363667 6.96000056 8.92402005 7.66261741 12 9 C10.625 10.5 10.625 10.5 9 12 C8.34 12 7.68 12 7 12 C5.96564444 10.35443434 4.97236487 8.6829392 4 7 C3.278125 6.113125 2.55625 5.22625 1.8125 4.3125 C0 2 0 2 0 0 Z " fill="#8876DD" transform="translate(145,285)"/>
<path d="M0 0 C0.66 0.99 1.32 1.98 2 3 C0.54550599 4.0055761 -0.91372443 5.00430435 -2.375 6 C-3.59316406 6.8353125 -3.59316406 6.8353125 -4.8359375 7.6875 C-7 9 -7 9 -9 9 C-9 8.34 -9 7.68 -9 7 C-8.01 7 -7.02 7 -6 7 C-6 6.34 -6 5.68 -6 5 C-6.66 4.67 -7.32 4.34 -8 4 C-7.34 3.67 -6.68 3.34 -6 3 C-5.34 3.33 -4.68 3.66 -4 4 C-4 3.34 -4 2.68 -4 2 C-2.68 2 -1.36 2 0 2 C0 1.34 0 0.68 0 0 Z " fill="#8371DF" transform="translate(172,281)"/>
<path d="M0 0 C0.33 0 0.66 0 1 0 C1 4.66666667 1 9.33333333 1 14 C0.01 13.34 -0.98 12.68 -2 12 C-2.42915004 7.45100954 -1.99170782 4.10789738 0 0 Z " fill="#8272DD" transform="translate(108,220)"/>
<path d="M0 0 C0.99 0 1.98 0 3 0 C4.06775224 1.96466413 5.06553465 3.96855359 6 6 C5.67 6.66 5.34 7.32 5 8 C3.68 7.67 2.36 7.34 1 7 C0.67 4.69 0.34 2.38 0 0 Z " fill="#7D6BE2" transform="translate(235,187)"/>
<path d="M0 0 C0.33 0 0.66 0 1 0 C0.5188509 5.77378925 -1.18467181 9.95859836 -4 15 C-4.66 15 -5.32 15 -6 15 C-4.36041242 9.76727367 -2.61047965 4.84803364 0 0 Z " fill="#D9D4F6" transform="translate(108,101)"/>
<path d="M0 0 C0.66 0 1.32 0 2 0 C4.09350689 3.4019487 4.17942163 6.05272412 4 10 C3.67 9.01 3.34 8.02 3 7 C2.01 7 1.02 7 0 7 C-1.125 2.25 -1.125 2.25 0 0 Z " fill="#7464E1" transform="translate(181,69)"/>
<path d="M0 0 C0.66 0 1.32 0 2 0 C2.66 1.98 3.32 3.96 4 6 C3.01 5.67 2.02 5.34 1 5 C1 6.65 1 8.3 1 10 C0.01 9.01 -0.98 8.02 -2 7 C-1.34 4.69 -0.68 2.38 0 0 Z " fill="#A497E3" transform="translate(152,7)"/>
<path d="M0 0 C0.66 0 1.32 0 2 0 C1.27991594 4.60853797 -0.31295939 8.67237409 -2 13 C-2.33 13 -2.66 13 -3 13 C-3.31563182 7.73946963 -2.66590937 4.55426184 0 0 Z " fill="#D5D0F6" transform="translate(116,100)"/>
<path d="M0 0 C3.98381075 2.16264012 6.88983545 4.71211176 10 8 C8.35 7.67 6.7 7.34 5 7 C4.67 6.01 4.34 5.02 4 4 C2.68 4 1.36 4 0 4 C0 2.68 0 1.36 0 0 Z " fill="#D7D0F7" transform="translate(92,248)"/>
<path d="M0 0 C0.66 0 1.32 0 2 0 C1.54803755 1.60597325 1.08817673 3.20972508 0.625 4.8125 C0.36976562 5.70582031 0.11453125 6.59914062 -0.1484375 7.51953125 C-1 10 -1 10 -3 13 C-3.44539877 4.2404908 -3.44539877 4.2404908 0 0 Z " fill="#D7D1F4" transform="translate(82,191)"/>
<path d="M0 0 C0.33 0 0.66 0 1 0 C1 4.29 1 8.58 1 13 C0.01 13.33 -0.98 13.66 -2 14 C-1.03644647 4.58997722 -1.03644647 4.58997722 0 0 Z " fill="#8B7CE2" transform="translate(126,130)"/>
<path d="M0 0 C2.90408342 3.87211123 3.85079464 6.40317854 5 11 C4.01 11.495 4.01 11.495 3 12 C3 11.34 3 10.68 3 10 C2.34 10 1.68 10 1 10 C0.67 6.7 0.34 3.4 0 0 Z " fill="#8779DF" transform="translate(196,99)"/>
<path d="M0 0 C0 0.66 0 1.32 0 2 C-2.97 3.65 -5.94 5.3 -9 7 C-8 2 -8 2 -6.1875 0.6875 C-4 0 -4 0 0 0 Z " fill="#8573DD" transform="translate(192,271)"/>
<path d="M0 0 C3.3503698 0.57764997 4.68233772 1.58576846 7 4 C9.09989652 5.17574711 9.09989652 5.17574711 11 6 C10.67 6.66 10.34 7.32 10 8 C8.32819726 7.05065487 6.66266064 6.09026687 5 5.125 C4.071875 4.59132813 3.14375 4.05765625 2.1875 3.5078125 C1.465625 3.01023437 0.74375 2.51265625 0 2 C0 1.34 0 0.68 0 0 Z " fill="#E5E0F4" transform="translate(141,288)"/>
<path d="M0 0 C2.64 0 5.28 0 8 0 C8 0.66 8 1.32 8 2 C7.34 2 6.68 2 6 2 C6 2.66 6 3.32 6 4 C4.35 3.67 2.7 3.34 1 3 C0.67 2.01 0.34 1.02 0 0 Z " fill="#CCC5F5" transform="translate(109,267)"/>
<path d="M0 0 C0.66 0 1.32 0 2 0 C3.61949011 2.57213134 4.04408751 3.67669159 3.625 6.75 C3.41875 7.4925 3.2125 8.235 3 9 C0.90250005 6.64031256 0.03094296 5.45383006 -0.1875 2.25 C-0.125625 1.5075 -0.06375 0.765 0 0 Z " fill="#7E6EDD" transform="translate(251,219)"/>
<path d="M0 0 C2.22825644 2.22825644 2.69239369 3.65761628 3.625 6.625 C4.01558594 7.85089844 4.01558594 7.85089844 4.4140625 9.1015625 C4.60742188 9.72804687 4.80078125 10.35453125 5 11 C4.34 11.66 3.68 12.32 3 13 C2.49242138 11.58603098 1.99425075 10.16868271 1.5 8.75 C1.08234375 7.56664062 1.08234375 7.56664062 0.65625 6.359375 C0 4 0 4 0 0 Z " fill="#8C7CDE" transform="translate(226,163)"/>
<path d="M0 0 C0.99 0.33 1.98 0.66 3 1 C3 1.66 3 2.32 3 3 C2.34 3 1.68 3 1 3 C0.67 4.98 0.34 6.96 0 9 C-0.66 9 -1.32 9 -2 9 C-2.20140476 5.37471432 -1.85776765 3.13498292 0 0 Z " fill="#5E4AD5" transform="translate(153,12)"/>
<path d="M0 0 C0.33 1.32 0.66 2.64 1 4 C1.99 4 2.98 4 4 4 C4.33 5.32 4.66 6.64 5 8 C2 8 2 8 -1 6 C-0.67 4.02 -0.34 2.04 0 0 Z " fill="#DBD5F8" transform="translate(50,225)"/>
<path d="M0 0 C0.33 0 0.66 0 1 0 C0.67 3.3 0.34 6.6 0 10 C-0.66 10 -1.32 10 -2 10 C-1.85950482 8.52031676 -1.71245174 7.04125484 -1.5625 5.5625 C-1.48128906 4.73878906 -1.40007812 3.91507812 -1.31640625 3.06640625 C-1 1 -1 1 0 0 Z " fill="#8374DD" transform="translate(132,106)"/>
<path d="M0 0 C0.66 0 1.32 0 2 0 C2 2.97 2 5.94 2 9 C1.01 9.33 0.02 9.66 -1 10 C-0.67 6.7 -0.34 3.4 0 0 Z " fill="#8674DF" transform="translate(145,40)"/>
<path d="M0 0 C2.375 -0.1875 2.375 -0.1875 5 0 C5.66 0.99 6.32 1.98 7 3 C5.1875 3.625 5.1875 3.625 3 4 C2.01 3.34 1.02 2.68 0 2 C0 1.34 0 0.68 0 0 Z " fill="#6E59E8" transform="translate(140,278)"/>
<path d="M0 0 C0.99 0 1.98 0 3 0 C1.74874616 3.75376152 0.4347596 4.24073289 -3 6 C-3.66 6 -4.32 6 -5 6 C-5 5.34 -5 4.68 -5 4 C-4.01 4 -3.02 4 -2 4 C-2 3.34 -2 2.68 -2 2 C-1.34 2 -0.68 2 0 2 C0 1.34 0 0.68 0 0 Z " fill="#9181DE" transform="translate(229,245)"/>
<path d="M0 0 C1.9375 0.6875 1.9375 0.6875 4 2 C4.75 4.625 4.75 4.625 5 7 C3.29115995 5.37660195 1.62553283 3.70680947 0 2 C0 1.34 0 0.68 0 0 Z " fill="#8E80E0" transform="translate(135,271)"/>
<path d="M0 0 C0.66 0 1.32 0 2 0 C2 0.66 2 1.32 2 2 C2.639375 2.268125 3.27875 2.53625 3.9375 2.8125 C6 4 6 4 7 7 C6.01 7 5.02 7 4 7 C2.02 3.535 2.02 3.535 0 0 Z " fill="#8F7FE2" transform="translate(117,246)"/>
</svg>
